<svg id="calques" xmlns="http://www.w3.org/2000/svg" viewBox="0 0 733.3 200">
    <style>
        .st0{enable-background:new}.st1{fill:#004461}.st2{fill:#afca00}.st3{fill:#fff}
    </style>
    <path d="M425.9 70.9h15.3c3.8 0 6.8.9 8.9 2.8 2.1 1.8 3.2 4.3 3.2 7.5s-1.1 5.7-3.2 7.5c-2.1 1.9-5.1 2.8-8.9 2.8h-8.9v14.7h-6.4V70.9zm14.5 15.6c2.2 0 3.9-.5 5-1.4 1.1-.9 1.7-2.2 1.7-3.9 0-1.8-.6-3.1-1.7-4-1.1-.9-2.8-1.4-5.1-1.4h-8.2v10.7h8.3zm41-5.4v25h-6.1v-4c-.8 1.4-1.9 2.5-3.3 3.2s-3 1.2-4.9 1.2c-2.2 0-4.1-.5-5.8-1.6-1.7-1.1-3-2.6-3.9-4.5-.9-2-1.4-4.2-1.4-6.8s.5-4.9 1.4-6.9c.9-2 2.3-3.6 3.9-4.7 1.7-1.1 3.6-1.7 5.8-1.7 1.8 0 3.4.4 4.9 1.2 1.4.8 2.5 1.9 3.3 3.2v-3.8h6.1zm-7.8 18.5c1.1-1.4 1.7-3.4 1.7-6s-.6-4.7-1.7-6.1c-1.1-1.4-2.7-2.1-4.8-2.1-2.1 0-3.6.7-4.8 2.2-1.1 1.5-1.7 3.5-1.7 6.1 0 2.6.6 4.6 1.7 6s2.8 2.1 4.8 2.1c2.1-.1 3.7-.8 4.8-2.2zm30.5-18.7v5.7a9.6 9.6 0 0 0-3.3-.6c-2.1 0-3.7.6-4.8 1.8-1.1 1.2-1.7 2.8-1.7 4.9v13.5h-6.1v-18c0-2.6-.1-5-.4-7.1h5.8l.5 4.4c.6-1.6 1.6-2.9 3-3.7 1.4-.9 2.9-1.3 4.6-1.3.9 0 1.7.2 2.4.4zm13.7 4.9V97c0 2.9 1.4 4.4 4.1 4.4.8 0 1.6-.1 2.5-.4v4.9c-1.1.4-2.4.6-4 .6-2.8 0-5-.8-6.5-2.4-1.5-1.6-2.3-3.9-2.3-6.8V85.8h-4.8v-4.7h4.8V75l6.2-2.1v8.2h6.6v4.7h-6.6zm10.5-16h6.9v6.1h-6.9v-6.1zm.4 36.4v-25h6.1v25h-6.1zm17.5-1.2c-1.9-1.1-3.4-2.6-4.4-4.5-1-1.9-1.5-4.2-1.5-6.8 0-2.6.5-4.9 1.6-6.9s2.6-3.5 4.6-4.6c2-1.1 4.2-1.7 6.8-1.7 1.8 0 3.5.3 5.2.8 1.7.6 3 1.3 4 2.3l-1.7 4.4c-1.1-.9-2.2-1.5-3.4-2-1.2-.4-2.4-.7-3.5-.7-2.2 0-4 .7-5.3 2.1-1.3 1.4-1.9 3.4-1.9 6.1 0 2.6.6 4.7 1.9 6.1s3 2.1 5.3 2.1c1.2 0 2.3-.2 3.5-.7 1.2-.5 2.3-1.1 3.4-2l1.7 4.4c-1.1 1-2.4 1.8-4.1 2.3-1.7.6-3.5.8-5.3.8-2.7.1-4.9-.5-6.9-1.5zm20-35.2h6.9v6.1h-6.9v-6.1zm.4 36.4v-25h6.1v25h-6.1zm33-24.1c1.7 1.1 3 2.7 3.9 4.7.9 2 1.4 4.3 1.4 6.9s-.5 4.8-1.4 6.8c-.9 2-2.2 3.5-3.9 4.5-1.7 1.1-3.6 1.6-5.8 1.6-1.8 0-3.4-.4-4.9-1.2s-2.5-1.9-3.3-3.2v14.7h-6.1V88.2c0-2.6-.1-5-.4-7.1h5.8l.5 4.3c.7-1.6 1.7-2.8 3.2-3.6 1.5-.9 3.2-1.3 5.2-1.3 2.2 0 4.1.5 5.8 1.6zM597 99.6c1.1-1.4 1.7-3.4 1.7-6s-.6-4.7-1.7-6.1c-1.1-1.5-2.7-2.2-4.8-2.2-2.1 0-3.7.7-4.9 2.1-1.1 1.4-1.7 3.5-1.7 6.1 0 2.6.6 4.6 1.7 6 1.1 1.4 2.7 2.1 4.8 2.1s3.8-.6 4.9-2zm37.3-18.5v25h-6.1v-4c-.8 1.4-1.9 2.5-3.3 3.2s-3 1.2-4.9 1.2c-2.2 0-4.1-.5-5.8-1.6-1.7-1.1-3-2.6-3.9-4.5-.9-2-1.4-4.2-1.4-6.8s.5-4.9 1.4-6.9c.9-2 2.3-3.6 3.9-4.7 1.7-1.1 3.6-1.7 5.8-1.7 1.8 0 3.4.4 4.9 1.2 1.4.8 2.5 1.9 3.3 3.2v-3.8h6.1zm-7.8 18.5c1.1-1.4 1.7-3.4 1.7-6s-.6-4.7-1.7-6.1c-1.1-1.4-2.7-2.1-4.8-2.1-2.1 0-3.6.7-4.8 2.2-1.1 1.5-1.7 3.5-1.7 6.1 0 2.6.6 4.6 1.7 6s2.8 2.1 4.8 2.1c2.1-.1 3.7-.8 4.8-2.2zm22.4-13.8V97c0 2.9 1.4 4.4 4.1 4.4.8 0 1.6-.1 2.5-.4v4.9c-1.1.4-2.4.6-4 .6-2.8 0-5-.8-6.5-2.4-1.5-1.6-2.3-3.9-2.3-6.8V85.8h-4.8v-4.7h4.8V75l6.2-2.1v8.2h6.6v4.7h-6.6zm10.5-16h6.9v6.1h-6.9v-6.1zm.4 36.4v-25h6.1v25h-6.1zm17.6-1.2c-1.9-1.1-3.4-2.6-4.5-4.5-1-2-1.6-4.3-1.6-6.9 0-2.6.5-5 1.6-6.9 1-2 2.5-3.5 4.5-4.5 1.9-1.1 4.2-1.6 6.7-1.6s4.7.5 6.6 1.6c1.9 1.1 3.4 2.6 4.4 4.5 1 2 1.6 4.3 1.6 6.9 0 2.6-.5 5-1.6 6.9-1 2-2.5 3.5-4.4 4.5-1.9 1.1-4.1 1.6-6.6 1.6s-4.8-.6-6.7-1.6zm11.5-5.3c1.1-1.4 1.7-3.4 1.7-6.1 0-2.7-.6-4.7-1.7-6.1-1.1-1.4-2.7-2.1-4.8-2.1-2.1 0-3.7.7-4.8 2.1-1.1 1.4-1.7 3.4-1.7 6.1 0 2.7.6 4.8 1.7 6.1 1.1 1.4 2.7 2.1 4.8 2.1 2.1-.1 3.7-.8 4.8-2.1zm36.5-8.9v15.4h-6.2V91.1c0-2-.4-3.4-1.1-4.3-.8-.9-1.9-1.4-3.5-1.4-1.9 0-3.4.6-4.6 1.8-1.2 1.2-1.7 2.8-1.7 4.8v14.2h-6.1v-18c0-2.6-.1-5-.4-7.1h5.8l.4 4.1c.9-1.5 2-2.7 3.5-3.5 1.5-.8 3.1-1.2 5-1.2 5.9 0 8.9 3.4 8.9 10.3zM430 154.6c-1.9-1.1-3.4-2.6-4.4-4.5-1-1.9-1.5-4.2-1.5-6.8 0-2.6.5-4.9 1.6-6.9s2.6-3.5 4.6-4.6c2-1.1 4.2-1.7 6.8-1.7 1.8 0 3.5.3 5.2.8 1.7.6 3 1.3 4 2.3l-1.7 4.4c-1.1-.9-2.2-1.5-3.4-2s-2.4-.7-3.5-.7c-2.2 0-4 .7-5.3 2.1-1.3 1.4-1.9 3.4-1.9 6.1s.6 4.7 1.9 6.1 3 2.1 5.3 2.1c1.2 0 2.3-.2 3.5-.7 1.2-.5 2.3-1.1 3.4-2l1.7 4.4c-1.1 1-2.4 1.8-4.1 2.3-1.7.6-3.5.8-5.3.8-2.7.1-5-.5-6.9-1.5zm20-35.2h6.9v6.1H450v-6.1zm.4 36.4v-25h6.1v25h-6.1zm20.8-20.4v11.2c0 2.9 1.4 4.4 4.1 4.4.8 0 1.6-.1 2.5-.4v4.9c-1.1.4-2.4.6-4 .6-2.8 0-5-.8-6.5-2.4-1.5-1.6-2.3-3.9-2.3-6.8v-11.5h-4.8v-4.7h4.8v-6.1l6.2-2.1v8.2h6.6v4.7h-6.6zm15.5 19.2c-1.9-1.1-3.4-2.6-4.5-4.5-1-2-1.6-4.3-1.6-6.9s.5-5 1.6-6.9c1-2 2.5-3.5 4.5-4.5 1.9-1.1 4.2-1.6 6.7-1.6s4.7.5 6.6 1.6c1.9 1.1 3.4 2.6 4.4 4.5 1 2 1.6 4.3 1.6 6.9s-.5 5-1.6 6.9c-1 2-2.5 3.5-4.4 4.5-1.9 1.1-4.1 1.6-6.6 1.6s-4.7-.6-6.7-1.6zm11.6-5.3c1.1-1.4 1.7-3.4 1.7-6.1 0-2.7-.6-4.7-1.7-6.1-1.1-1.4-2.7-2.1-4.8-2.1-2.1 0-3.7.7-4.8 2.1-1.1 1.4-1.7 3.4-1.7 6.1 0 2.7.6 4.8 1.7 6.1 1.1 1.4 2.7 2.1 4.8 2.1 2-.1 3.6-.8 4.8-2.1zm36-18.6l-11.7 26.7c-1.3 3.1-3 5.4-5.1 6.8-2.1 1.4-4.6 2.4-7.6 2.8l-1.4-4.8c2.3-.5 4.1-1.2 5.3-2 1.2-.8 2.1-2 2.9-3.6l.8-1.8-10.4-24.2h6.5l7.2 18 7.3-18h6.2zm25.1 12.9h-17.3c.1 2.7.8 4.7 2 5.9 1.2 1.3 3 1.9 5.4 1.9 2.7 0 5.3-.9 7.6-2.7l1.8 4.3c-1.2 1-2.7 1.7-4.4 2.3-1.7.6-3.5.9-5.3.9-4.1 0-7.3-1.2-9.7-3.5-2.3-2.3-3.5-5.5-3.5-9.5 0-2.5.5-4.8 1.5-6.8s2.5-3.5 4.3-4.6c1.9-1.1 4-1.7 6.3-1.7 3.4 0 6.2 1.1 8.2 3.3 2 2.2 3 5.3 3 9.2v1zm-15-7.6c-1 1-1.7 2.4-2 4.2H554c-.2-1.9-.8-3.3-1.7-4.3-.9-1-2.2-1.4-3.9-1.4s-3 .5-4 1.5zm43.6 4.4v15.4h-6.2v-15.1c0-2-.4-3.4-1.1-4.3-.8-.9-1.9-1.4-3.5-1.4-1.9 0-3.4.6-4.6 1.8-1.2 1.2-1.7 2.8-1.7 4.8v14.2h-6.1v-18c0-2.6-.1-5-.4-7.1h5.8l.4 4.1c.9-1.5 2-2.7 3.5-3.5 1.5-.8 3.1-1.2 5-1.2 5.9 0 8.9 3.4 8.9 10.3zm29.9 0v15.4h-6.2v-15.1c0-2-.4-3.4-1.1-4.3-.8-.9-1.9-1.4-3.5-1.4-1.9 0-3.4.6-4.6 1.8-1.2 1.2-1.7 2.8-1.7 4.8v14.2h-6.1v-18c0-2.6-.1-5-.4-7.1h5.8l.4 4.1c.9-1.5 2-2.7 3.5-3.5 1.5-.8 3.1-1.2 5-1.2 5.9 0 8.9 3.4 8.9 10.3zm28.5 3.2h-17.3c.1 2.7.8 4.7 2 5.9 1.2 1.3 3 1.9 5.4 1.9 2.7 0 5.3-.9 7.6-2.7l1.8 4.3c-1.2 1-2.7 1.7-4.4 2.3-1.7.6-3.5.9-5.3.9-4.1 0-7.3-1.2-9.7-3.5-2.3-2.3-3.5-5.5-3.5-9.5 0-2.5.5-4.8 1.5-6.8s2.5-3.5 4.3-4.6c1.9-1.1 4-1.7 6.3-1.7 3.4 0 6.2 1.1 8.2 3.3 2 2.2 3 5.3 3 9.2v1zm-15-7.6c-1 1-1.7 2.4-2 4.2H641c-.2-1.9-.8-3.3-1.7-4.3-.9-1-2.2-1.4-3.9-1.4s-3 .5-4 1.5z" class="st0" id="Handicap"/>
    <path class="st1" d="M188.8 45.4c-1.5-.9-3.3-1.4-5.1-1.4-2.5 0-5 1-6.7 2.8-1.8 1.8-2.8 4.2-2.8 6.8-.1.4-.1.8 0 1.2l14.6-9.4zm155.4 58.1c-1.5-1-3.2-1.5-5-1.4-2.5-.1-5 .9-6.7 2.8-1.8 1.8-2.8 4.2-2.8 6.8v1.2l14.5-9.4zM111.5 63.1c2.5 0 5-1 6.7-2.8 1.9-1.7 2.9-4.2 2.8-6.7 0-5.3-4.3-9.5-9.6-9.5-2.5 0-4.9 1-6.7 2.8-3.9 3.6-4.1 9.6-.5 13.5 1.9 2 4.5 3.1 7.3 3.1v-.4zM265.3 102c-2.5 0-5 1-6.7 2.8-3.7 3.6-3.8 9.6-.1 13.3l.1.1c3.6 3.7 9.6 3.8 13.3.1l.1-.1c1.8-1.8 2.8-4.2 2.8-6.7s-1-5-2.8-6.7c-1.7-1.8-4.2-2.8-6.7-2.8zm-108 19.1c5.3 0 9.6-4.3 9.6-9.5 0-2.6-1-5-2.9-6.7-3.7-3.7-9.8-3.7-13.5 0-3.7 3.7-3.7 9.8 0 13.5 1.8 1.8 4.2 2.8 6.7 2.8h.1z"/>
    <path class="st1" d="M274.8 144.9v-19c-6.8 5-16.2 4.1-22-1.9-3.3-3.3-5.1-7.7-5-12.3 0-9.8 7.9-17.7 17.7-17.7 9.8 0 17.7 7.9 17.7 17.7v33.1h-1c28.9.4 62.3 1.8 101.3 4.5V45.2C241.5-9.6 69.8-6.9 4.1 33.4l54.3 163c9.1-5.5 17.9-10.7 26.6-15.3 42.7-23.2 87.2-37 189.8-36.2zm51.8-45.8c3.3-3.4 7.8-5.3 12.5-5.2 3.5 0 6.9 1 9.8 3 2.9 2 5.2 4.8 6.6 8v.7l-21.7 14.1c1.5.9 3.2 1.4 5 1.4 2.6.1 5.1-1 6.9-2.9.7-.8 1.4-1.8 1.8-2.8h8.6c-.7 3.2-2.3 6.1-4.6 8.5-3.2 3.6-7.8 5.6-12.6 5.5-4.7.1-9.2-1.8-12.5-5.1-3.4-3.2-5.3-7.8-5.2-12.5.1-4.7 2-9.4 5.4-12.7zm-38.5-4.7h8.2v19.7c.1 3.8 3.1 6.9 6.9 6.9 1.9 0 3.6-.8 4.9-2.1 1.3-1.3 2.1-3 2-4.8V94.5h8.2v19.7c0 4-1.7 7.8-4.6 10.5-5.5 5.8-14.7 6.1-20.5.6l-.6-.6c-2.9-2.7-4.5-6.5-4.5-10.5V94.4zm-167 8.1h-5.5v26.1h-8v-26.1h-5.2v-8h5.2v-11h8.1v11h5.5l-.1 8zm13.8 26.1h-8.3V83.1h8.1l.2 45.5zm99.9-45.5h8v8.1h-8.2l.2-8.1zm0 11.1h8v34.2h-8.2l.2-34.2zm-22.1 0h5.2v-11h7.7v11h5.2v8.1h-5.2v26.1h-8.1v-25.8h-5.2l.4-8.4zm-2.3 14.5v19.7h-8.5V109c0-3.8-3.1-6.9-6.9-6.9-3.8 0-6.9 3.1-6.9 6.9v19.7H180V109c0-4 1.6-7.8 4.5-10.5 2.8-2.9 6.5-4.5 10.5-4.5s7.7 1.6 10.5 4.5c2.9 2.7 4.5 6.5 4.6 10.5l.3-.3zm-38.6-67.9c3.2-3.4 7.8-5.3 12.5-5.2 3.5 0 6.9 1 9.8 3 2.9 1.9 5.2 4.7 6.6 7.9l.3.7-22.3 14.2c1.5.9 3.3 1.4 5.1 1.4 2.5.1 5-1 6.7-2.9.8-.8 1.4-1.8 1.9-2.9h8.6c-.7 3.2-2.3 6.2-4.6 8.5-3.2 3.5-7.8 5.4-12.5 5.2-4.7.1-9.2-1.8-12.6-5.1-3.4-3.3-5.3-7.8-5.2-12.5 0-4.6 1.9-9 5.2-12.3h.5zM148.6 51c-.1-4.1 1.7-7.9 4.7-10.6 2.9-2.9 6.9-4.5 11-4.4h.9v8H164c-2-.1-4 .6-5.5 2-1.4 1.3-2.2 3.1-2.1 5v19.7h-7.7V51zm8.7 42.9c4.7 0 9.2 1.8 12.5 5.2 3.4 3.3 5.3 7.8 5.2 12.5v17h-8.1v-2.8c-6.8 4.9-16.2 4.1-22-1.9-6.8-7.1-6.6-18.3.5-25.1 3.3-3.1 7.6-4.9 12.2-4.9h-.3zm-23.1-69h8.1V33h-8.1v-8.1zm0 11.5h8.1v34.2h-8.1V36.4zM99 41.1c3.3-3.4 7.8-5.2 12.5-5.2 9.7.1 17.6 7.9 17.7 17.6-.1 9.8-8.1 17.7-17.9 17.6-4.6 0-9-1.9-12.3-5.1-6.8-6.9-6.9-18 0-24.9zM66 25.2h8.4v37h18.7v8.4h-27L66 25.2zm6.2 103.4h-8.8l16.1-45.5H89l16.1 45.5h-9l-2.8-7.6H75.1l-2.9 7.6z"/>
    <path class="st1" d="M77.9 113.4h12.6l-6.3-17.2z"/>
    <path class="st2" d="M85 181.1h298.3v-31.5C210.9 139 150.2 146.5 85 181.1zm299-31.5z"/>
    <path class="st2" d="M383.3 149.6c-39.1-2.6-72.5-4.1-101.3-4.5h-7.1c-102.6-1-147.1 12.8-190 36 65.3-34.6 126-42.1 298.4-31.5z"/>
    <path class="st3" d="M111.5 71.1c9.7 0 17.6-7.9 17.7-17.6-.1-9.7-8-17.6-17.7-17.6-4.7 0-9.2 1.8-12.5 5.2-6.9 6.9-6.9 18 0 24.9 3.3 3.3 7.9 5.2 12.5 5.1zm-6.7-24.3c3.7-3.7 9.8-3.7 13.5 0 1.8 1.8 2.8 4.2 2.8 6.7.1 2.5-1 5-2.8 6.7-3.4 4-9.5 4.4-13.4 1-4-3.4-4.4-9.5-1-13.4.2-.3.6-.7.9-1zm29.4-10.4h8.1v34.2h-8.1zM156.7 51c-.1-1.9.7-3.7 2.1-5 1.5-1.4 3.5-2.1 5.5-2h.9v-8.1H164c-4.1-.1-8.1 1.5-11 4.4-3 2.7-4.7 6.6-4.7 10.6v19.7h8.1l.3-19.6zm-41 32.1h-8.1v11.3h-5.3v8.1h5.3v26.1h8.1v-26.1h5.2v-8.1h-5.2zm10.9 0h8.1v45.5h-8.1zm18 40.8c5.9 6 15.2 6.8 22 1.9v2.8h8.3v-17c.1-4.7-1.8-9.2-5.2-12.5-7.2-6.6-18.4-6.2-25 .9-6.1 6.8-6.2 17.1-.1 23.9zm6-19c3.7-3.7 9.8-3.7 13.5 0 1.8 1.8 2.9 4.2 2.8 6.7 0 5.3-4.3 9.5-9.6 9.5s-9.5-4.3-9.5-9.6c0-2.5 1-4.9 2.8-6.6zm33.9-6.5c-2.9 2.7-4.5 6.5-4.5 10.5v19.7h8.1v-19.7c0-3.8 3.1-6.9 6.9-6.9 3.8 0 6.9 3.1 6.9 6.9v19.7h8.1v-19.7c0-4-1.7-7.8-4.6-10.5-2.7-2.9-6.5-4.5-10.5-4.5-3.9 0-7.7 1.6-10.4 4.5zm33.1 30.3h8.1v-26.2h5.3v-8.1h-5.3V83.1h-8.1v11.3h-5.3v8.1h5.3zm17-34.3h8.1v34.2h-8.1zm0-11.3h8.1v8.1h-8.1zm48.4 28.5c-.1-9.7-8-17.6-17.7-17.7-9.8 0-17.7 7.9-17.7 17.7 0 4.6 1.8 9 5 12.3 5.8 6.1 15.2 6.9 22 1.9v19h8.3v-33.2zm-11 6.7c-3.6 3.7-9.6 3.8-13.3.1l-.1-.1c-3.7-3.6-3.8-9.6-.1-13.3l.1-.1c1.8-1.8 4.2-2.9 6.7-2.8 2.5 0 5 1 6.7 2.8 1.8 1.8 2.9 4.2 2.8 6.7 0 2.5-1 4.9-2.8 6.7zm2.8 26.6zm28.1-15.7c4 0 7.8-1.6 10.5-4.5 2.9-2.7 4.6-6.5 4.6-10.5V94.5h-8.2v19.7c0 1.8-.7 3.6-2 4.8-1.3 1.3-3.1 2.1-4.9 2.1-3.7-.2-6.7-3.2-6.7-7V94.5h-8.3v19.7c0 4 1.6 7.7 4.5 10.5 2.8 2.8 6.6 4.5 10.5 4.5zM183.8 71.1c4.7.1 9.3-1.8 12.5-5.2 2.3-2.4 3.9-5.3 4.6-8.5h-8.6c-.4 1.1-1.1 2-1.9 2.9-1.7 1.9-4.1 2.9-6.7 2.9-1.8 0-3.5-.5-5.1-1.4l21.7-14.1-.3-.7c-1.4-3.2-3.7-6-6.6-7.9-2.9-2-6.3-3-9.8-3-4.7-.1-9.2 1.8-12.5 5.2-3.4 3.3-5.2 7.8-5.2 12.5-.1 4.7 1.8 9.2 5.2 12.5 3.5 3.1 8 4.9 12.7 4.8zM177 46.8c1.8-1.8 4.2-2.9 6.7-2.8 1.8 0 3.5.5 5.1 1.4l-14.4 9.4c-.1-.4-.1-.8 0-1.2-.2-2.5.8-5 2.6-6.8zm162.2 82.4c4.8.1 9.4-1.9 12.6-5.5 2.3-2.4 3.8-5.3 4.6-8.5h-8.6c-.5 1-1.1 2-1.8 2.8-1.7 1.9-4.2 3-6.7 2.9-1.8 0-3.5-.5-5-1.4l21.7-13.9v-.7c-1.4-3.2-3.7-6-6.6-8-2.9-2-6.3-3-9.8-3-4.7-.1-9.3 1.8-12.5 5.2-3.4 3.3-5.2 7.8-5.1 12.5-.1 4.7 1.8 9.2 5.2 12.5 3 3.2 7.4 5 12 5.1zm-6.8-24.3c1.7-1.9 4.2-2.9 6.7-2.8 1.8 0 3.5.5 5 1.4l-14.4 9.4v-1.2c0-2.6.9-5.1 2.7-6.8zM93.2 62.2H74.6v-37h-8.5v45.4h27.1zm2.8 66.4h9L89 83.1h-9.4l-16.1 45.5h8.9l2.8-7.6h18.1l2.7 7.6zm-18.1-15.2l6.3-17.2 6.3 17.2H77.9zm56.3-88.5h8.1V33h-8.1z"/>
</svg>
