<svg xmlns="http://www.w3.org/2000/svg" viewBox="0 0 193.47 43.64">
    <defs>
        <style>
            .cls-1{fill:#014562}.cls-2{fill:#afca0c}.cls-3{fill:#fff}.cls-4{fill:#010101}
        </style>
    </defs>
    <path class="cls-1" d="M41.78 9.48a2.22 2.22 0 0 0-1.15-.32 2.15 2.15 0 0 0-2.16 2.16.42.42 0 0 0 0 .27zm35.15 13.13a1.85 1.85 0 0 0-1.12-.32 2 2 0 0 0-1.54.63 2.1 2.1 0 0 0-.63 1.53v.27zM24.3 13.46a2.16 2.16 0 0 0 1.53-.63 1.93 1.93 0 0 0 .63-1.53 2.13 2.13 0 0 0-2.16-2.14 2.17 2.17 0 0 0-1.51.63 2.14 2.14 0 0 0-.11 3 2.24 2.24 0 0 0 1.64.7zm34.79 8.83a2.22 2.22 0 0 0-1.53.63 2.14 2.14 0 0 0 0 3 2.13 2.13 0 0 0 3 0 2.11 2.11 0 0 0 .63-1.53 2.17 2.17 0 0 0-.63-1.53 2.12 2.12 0 0 0-1.47-.57zm-24.45 4.3a2.16 2.16 0 0 0 2.16-2.16 2.2 2.2 0 0 0-.65-1.53 2.14 2.14 0 0 0-3 0 2.15 2.15 0 0 0 0 3 2.09 2.09 0 0 0 1.5.63z"/>
    <path class="cls-1" d="M61.23 32v-4.33a3.77 3.77 0 0 1-5-.42 3.85 3.85 0 0 1-1.13-2.8 4 4 0 0 1 8 0v7.48h-.2c6.53.09 14.1.41 22.93 1V9.43C53.69-3 14.84-2.37 0 6.75l12.3 36.89c2-1.24 4-2.41 6-3.47C28 34.93 38 31.8 61.23 32zM73 21.62a3.91 3.91 0 0 1 2.84-1.2 4 4 0 0 1 2.16.68 4.2 4.2 0 0 1 1.49 1.8v.16l-4.91 3.22a2.26 2.26 0 0 0 1.13.31 2 2 0 0 0 1.55-.65 2.35 2.35 0 0 0 .41-.63h1.93a3.77 3.77 0 0 1-1 1.91 3.67 3.67 0 0 1-2.84 1.24 3.92 3.92 0 0 1-2.84-1.15 3.79 3.79 0 0 1-1.17-2.81A4 4 0 0 1 73 21.62zm-8.74-1.06h1.85V25a1.6 1.6 0 0 0 1.55 1.57 1.54 1.54 0 0 0 1.1-.47 1.39 1.39 0 0 0 .45-1.1v-4.42h1.87V25a3.22 3.22 0 0 1-1 2.36 3.29 3.29 0 0 1-4.64.14l-.14-.14a3.2 3.2 0 0 1-1-2.36zm-37.8 1.82h-1.24v5.9h-1.8v-5.9h-1.19v-1.82h1.19v-2.48h1.83v2.5h1.23zm3.11 5.9H27.7V18h1.82zM52.18 18H54v1.83h-1.86zm0 2.48H54v7.72h-1.86zm-5 0h1.19V18h1.76v2.5h1.2v1.83h-1.2v5.9h-1.82V22.4h-1.2zm-.52 3.29v4.46h-1.91v-4.38a1.58 1.58 0 1 0-3.15 0v4.45h-1.83v-4.45a3.47 3.47 0 0 1 3.4-3.4 3.24 3.24 0 0 1 2.37 1 3.34 3.34 0 0 1 1 2.39zM38 8.42a3.75 3.75 0 0 1 2.81-1.17 4 4 0 0 1 3.72 2.48l.07.15-5 3.2a2.29 2.29 0 0 0 1.15.32 2 2 0 0 0 1.51-.66 2.3 2.3 0 0 0 .43-.65h1.93A3.86 3.86 0 0 1 43.47 14a3.78 3.78 0 0 1-2.84 1.19 4 4 0 0 1-2.84-1.15 3.78 3.78 0 0 1-1.17-2.81 3.89 3.89 0 0 1 1.17-2.77zm-5.27 2.3a3.13 3.13 0 0 1 1.06-2.41 3.38 3.38 0 0 1 2.5-1h.2v1.83h-.29a1.69 1.69 0 0 0-1.24.45 1.52 1.52 0 0 0-.5 1.13v4.46h-1.8v-4.46zm2 9.73a3.92 3.92 0 0 1 2.83 1.19 3.81 3.81 0 0 1 1.18 2.81v3.85h-1.92v-.63a3.83 3.83 0 0 1-5-.42 4 4 0 0 1 2.86-6.8zM29.41 4.84h1.83v1.82h-1.83zm0 2.59h1.83v7.75h-1.83zm-7.95 1.06a3.91 3.91 0 0 1 2.84-1.17 4 4 0 1 1-2.82 6.8 4 4 0 0 1 0-5.63zM14 4.88h1.9v8.38h4.21v1.92H14zm1.39 23.4h-2L17.05 18h2.14l3.65 10.29h-2.05l-.63-1.71h-4.1z"/>
    <path class="cls-1" d="M16.69 24.86h2.84l-1.42-3.9-1.42 3.9z"/>
    <path class="cls-2" d="M18.29 40.17h67.49V33c-39-2.35-52.78-.66-67.49 7.17z"/>
    <path class="cls-2" d="M85.78 33c-8.85-.6-16.39-.92-22.92-1h-1.6c-23.26-.23-33.26 2.9-43 8.17C33 32.34 46.78 30.65 85.78 33z"/>
    <path class="cls-3" d="M24.3 15.29a4 4 0 1 0 0-8 3.94 3.94 0 0 0-2.84 1.17 4 4 0 0 0 0 5.63 3.9 3.9 0 0 0 2.84 1.2zm-1.53-5.5a2.15 2.15 0 0 1 3.67 1.51 2.07 2.07 0 0 1-.63 1.53A2.16 2.16 0 1 1 22.54 10a2.49 2.49 0 0 1 .23-.21zm6.64-2.36h1.82v7.75h-1.82zm5.09 3.29a1.39 1.39 0 0 1 .5-1.13 1.69 1.69 0 0 1 1.24-.45h.2V7.32h-.29a3.41 3.41 0 0 0-2.5 1 3.13 3.13 0 0 0-1.06 2.41v4.46h1.82zm-9.28 7.29H23.4v2.55h-1.19v1.82h1.19v5.9h1.82v-5.9h1.2v-1.82h-1.2v-2.55zm2.48-.02h1.82v10.29H27.7zm4.08 9.23a3.77 3.77 0 0 0 5 .43v.63h1.9v-3.85a3.79 3.79 0 0 0-1.18-2.81 4 4 0 0 0-5.69 5.6zm1.35-4.3a2.15 2.15 0 0 1 3 0 2.1 2.1 0 0 1 .63 1.53 2.17 2.17 0 0 1-2.16 2.17 2.17 2.17 0 0 1-1.51-3.7zm7.66-1.46a3.26 3.26 0 0 0-1 2.39v4.45h1.81v-4.45a1.58 1.58 0 1 1 3.15 0v4.45h1.82v-4.45a3.34 3.34 0 0 0-1-2.39 3.24 3.24 0 0 0-2.37-1 3.3 3.3 0 0 0-2.41 1zm7.49 6.84h1.85v-5.92h1.2v-1.82h-1.2v-2.55h-1.85v2.55h-1.17v1.82h1.17v5.92zm3.86-7.74h1.82v7.75h-1.82zm0-2.55h1.82v1.82h-1.82zm10.94 6.42a4 4 0 1 0-6.89 2.79 3.78 3.78 0 0 0 5 .43V32h1.89v-7.57zM60.6 26a2.12 2.12 0 0 1-3 0 2.13 2.13 0 0 1 0-3 2.1 2.1 0 0 1 1.53-.63 2.22 2.22 0 0 1 1.54.63 2.1 2.1 0 0 1 .63 1.53 2.25 2.25 0 0 1-.7 1.47zm7.01 2.42a3.39 3.39 0 0 0 2.38-1A3.19 3.19 0 0 0 71 25v-4.42h-1.82V25a1.59 1.59 0 0 1-1.55 1.58A1.62 1.62 0 0 1 66.1 25v-4.42h-1.89V25a3.2 3.2 0 0 0 1 2.36 3.29 3.29 0 0 0 2.4 1.06zM40.65 15.29a3.82 3.82 0 0 0 2.84-1.2 4.17 4.17 0 0 0 1.06-1.93h-1.94a2 2 0 0 1-.43.65 1.9 1.9 0 0 1-1.51.65 2.3 2.3 0 0 1-1.15-.31L44.43 10l-.06-.16A4.23 4.23 0 0 0 42.88 8a3.88 3.88 0 0 0-2.23-.67 3.72 3.72 0 0 0-2.81 1.17 3.88 3.88 0 0 0-1.18 2.83 4 4 0 0 0 4 4zm-1.55-5.5a2.07 2.07 0 0 1 1.53-.63 2.22 2.22 0 0 1 1.15.32l-3.27 2.11a.61.61 0 0 1 0-.27 2 2 0 0 1 .59-1.53zm36.71 18.63a3.69 3.69 0 0 0 2.83-1.24 4 4 0 0 0 1-1.92h-1.9a3.15 3.15 0 0 1-.4.64 2 2 0 0 1-1.53.65 2.12 2.12 0 0 1-1.13-.32l4.91-3.15v-.16a4.27 4.27 0 0 0-1.49-1.8 3.88 3.88 0 0 0-2.23-.67A3.74 3.74 0 0 0 73 21.64a3.79 3.79 0 0 0-1.15 2.84 3.73 3.73 0 0 0 1.17 2.81 4 4 0 0 0 2.79 1.13zm-1.54-5.5a2 2 0 0 1 1.54-.63 2.11 2.11 0 0 1 1.12.32l-3.26 2.11v-.27a2 2 0 0 1 .6-1.53zm-54.11-9.66h-4.24V4.88h-1.89v10.3h6.13v-1.92zm.63 15.02h2.05L19.19 18h-2.14L13.4 28.28h2l.63-1.71h4.1zm-4.1-3.42L18.11 21l1.42 3.9zM29.41 4.84h1.82v1.82h-1.82z"/>
    <path class="cls-4" d="M95 15.59h1.39v6.55H100v1.14h-5zm11.1 2.23v5.46h-1.33v-.87a1.65 1.65 0 0 1-.71.7 2.16 2.16 0 0 1-1.06.26 2.32 2.32 0 0 1-1.26-.35 2.29 2.29 0 0 1-.86-1 3.79 3.79 0 0 1 0-3 2.37 2.37 0 0 1 .86-1 2.29 2.29 0 0 1 2.31-.11 1.71 1.71 0 0 1 .71.7v-.82zm-1.69 4a2.07 2.07 0 0 0 .36-1.3 2.13 2.13 0 0 0-.36-1.33 1.28 1.28 0 0 0-1-.47 1.26 1.26 0 0 0-1 .48 2.2 2.2 0 0 0-.37 1.34 2.07 2.07 0 0 0 .37 1.3 1.31 1.31 0 0 0 1.06.45 1.26 1.26 0 0 0 .94-.45zm6.22-6.23H112v6.55h3.6v1.14h-5zm6.94 7.41a2.4 2.4 0 0 1-1-1 3.22 3.22 0 0 1-.34-1.5 3.26 3.26 0 0 1 .34-1.51 2.4 2.4 0 0 1 1-1 3 3 0 0 1 1.46-.35 3 3 0 0 1 1.45.35 2.37 2.37 0 0 1 1 1 3.15 3.15 0 0 1 .34 1.51 3.1 3.1 0 0 1-.34 1.5 2.37 2.37 0 0 1-1 1 3 3 0 0 1-1.45.35 3 3 0 0 1-1.46-.35zm2.51-1.16a2.09 2.09 0 0 0 .36-1.33 2.14 2.14 0 0 0-.37-1.34 1.25 1.25 0 0 0-1-.46 1.27 1.27 0 0 0-1 .46 2.14 2.14 0 0 0-.36 1.34 2.09 2.09 0 0 0 .36 1.33 1.26 1.26 0 0 0 1 .45 1.3 1.3 0 0 0 1.01-.43zm4.29-6.49v1.33h-1.5v-1.33zM123 17.82h1.34v5.46H123zm6.26-.04V19a2 2 0 0 0-.72-.14 1.36 1.36 0 0 0-1 .4 1.53 1.53 0 0 0-.36 1.06v3h-1.34v-3.95a12 12 0 0 0-.09-1.55H127l.1 1a1.68 1.68 0 0 1 .65-.82 1.92 1.92 0 0 1 1-.28 1.45 1.45 0 0 1 .51.06zm5.42 2.84h-3.76a2 2 0 0 0 .44 1.29 1.52 1.52 0 0 0 1.17.42 2.69 2.69 0 0 0 1.67-.58l.39.93a3.11 3.11 0 0 1-1 .5 3.51 3.51 0 0 1-1.15.19 2.86 2.86 0 0 1-2.11-.76 2.77 2.77 0 0 1-.77-2.07 3.2 3.2 0 0 1 .34-1.48 2.42 2.42 0 0 1 .94-1 2.54 2.54 0 0 1 1.37-.37 2.3 2.3 0 0 1 1.78.73 2.89 2.89 0 0 1 .65 2zM131.4 19a1.62 1.62 0 0 0-.43.93h2.54a1.53 1.53 0 0 0-.38-.93 1.1 1.1 0 0 0-.84-.31 1.27 1.27 0 0 0-.89.31zm4.6.82h3.26v1.08H136zm9.76 1.66H142l-.78 1.8h-1.4l3.48-7.69h1.14l3.49 7.69h-1.4zm-.46-1.08l-1.42-3.3-1.41 3.3zm4.93-1.56v2.44q0 1 .9 1a1.86 1.86 0 0 0 .54-.08v1.07a2.75 2.75 0 0 1-.87.13 1.85 1.85 0 0 1-1.42-.52 2 2 0 0 1-.5-1.49v-2.55h-1v-1h1v-1.35l1.35-.45v1.78h1.45v1zm2.38-3.51H154v8h-1.34zm8.04 2.49v5.46h-1.33v-.87a1.71 1.71 0 0 1-.71.7 2.19 2.19 0 0 1-1.06.26 2.26 2.26 0 0 1-2.12-1.37 3.46 3.46 0 0 1-.3-1.48 3.59 3.59 0 0 1 .3-1.5 2.51 2.51 0 0 1 .86-1 2.31 2.31 0 0 1 2.32-.11 1.77 1.77 0 0 1 .71.7v-.82zm-1.7 4a2 2 0 0 0 .37-1.3 2.07 2.07 0 0 0-.37-1.33 1.39 1.39 0 0 0-2.09 0 2.13 2.13 0 0 0-.37 1.34 2 2 0 0 0 .37 1.3 1.3 1.3 0 0 0 1.06.45 1.24 1.24 0 0 0 1.08-.44zm8.25-1.89v3.35h-1.35V20a1.44 1.44 0 0 0-.25-.95 1 1 0 0 0-.77-.3 1.28 1.28 0 0 0-1 .4 1.45 1.45 0 0 0-.38 1v3.09h-1.34v-3.87a12 12 0 0 0-.09-1.55h1.27l.1.9a1.94 1.94 0 0 1 .76-.77 2.16 2.16 0 0 1 1.08-.27c1.32 0 1.97.75 1.97 2.25zm3.16-1.09v2.44q0 1 .9 1a1.86 1.86 0 0 0 .54-.08v1.07a2.75 2.75 0 0 1-.87.13 1.89 1.89 0 0 1-1.43-.52 2.08 2.08 0 0 1-.49-1.49v-2.55h-1v-1h1v-1.35l1.35-.45v1.78h1.45v1zm3.79-3.49v1.33h-1.5v-1.33zm-1.41 2.47h1.34v5.46h-1.34zm8.14 0a10 10 0 0 0-.1 1.55v6.25h-1.35v-3.17a1.72 1.72 0 0 1-.71.68 2.24 2.24 0 0 1-1 .24 2.35 2.35 0 0 1-1.27-.35 2.26 2.26 0 0 1-.85-1 3.32 3.32 0 0 1-.31-1.48 3.59 3.59 0 0 1 .31-1.5 2.44 2.44 0 0 1 .86-1 2.19 2.19 0 0 1 1.26-.37 2.29 2.29 0 0 1 1.11.28 1.7 1.7 0 0 1 .71.79l.1-.93zm-1.8 4a2 2 0 0 0 .37-1.3 2.07 2.07 0 0 0-.37-1.33 1.39 1.39 0 0 0-2.09 0 2.13 2.13 0 0 0-.37 1.34 2 2 0 0 0 .37 1.3 1.29 1.29 0 0 0 1 .45 1.24 1.24 0 0 0 1.09-.44zm8.14-4v5.46h-1.32v-.84a1.76 1.76 0 0 1-.69.69 2 2 0 0 1-1 .24c-1.34 0-2-.75-2-2.25v-3.3h1.34v3.31a1.34 1.34 0 0 0 .24.88 1 1 0 0 0 .75.28 1.22 1.22 0 0 0 .95-.39 1.48 1.48 0 0 0 .36-1v-3zm6.25 2.8h-3.76a1.91 1.91 0 0 0 .44 1.29 1.52 1.52 0 0 0 1.17.42 2.66 2.66 0 0 0 1.66-.58l.39.93a3.17 3.17 0 0 1-1 .5 3.57 3.57 0 0 1-1.16.19 2.84 2.84 0 0 1-2.1-.76 2.73 2.73 0 0 1-.77-2.07 3.19 3.19 0 0 1 .33-1.48 2.48 2.48 0 0 1 .94-1 2.59 2.59 0 0 1 1.38-.37 2.3 2.3 0 0 1 1.78.73 2.94 2.94 0 0 1 .65 2zM190.19 19a1.63 1.63 0 0 0-.44.93h2.54a1.53 1.53 0 0 0-.37-.93 1.14 1.14 0 0 0-.85-.31 1.25 1.25 0 0 0-.88.31zM100 29.09l-2.39 5.45h-1.15l-2.36-5.45h1.42L97.09 33l1.6-3.92zm5.7-.01v5.46h-1.32v-.84a1.76 1.76 0 0 1-.69.69 2 2 0 0 1-1 .24c-1.33 0-2-.75-2-2.25v-3.3H102v3.31a1.34 1.34 0 0 0 .24.88 1 1 0 0 0 .75.28 1.24 1.24 0 0 0 1-.39 1.52 1.52 0 0 0 .35-1v-3zm6.3 2.8h-3.76a1.91 1.91 0 0 0 .44 1.29 1.52 1.52 0 0 0 1.17.42 2.71 2.71 0 0 0 1.67-.58l.38.93a3 3 0 0 1-.95.5 3.51 3.51 0 0 1-1.15.19 2.84 2.84 0 0 1-2.11-.76 2.77 2.77 0 0 1-.77-2.07 3.08 3.08 0 0 1 .34-1.48 2.36 2.36 0 0 1 .94-1 2.54 2.54 0 0 1 1.37-.37 2.3 2.3 0 0 1 1.78.73 2.94 2.94 0 0 1 .65 2zm-3.28-1.65a1.63 1.63 0 0 0-.44.93h2.54a1.47 1.47 0 0 0-.37-.93 1.13 1.13 0 0 0-.85-.31 1.25 1.25 0 0 0-.93.31zm12.56-3.64v8H120v-.87a1.73 1.73 0 0 1-.71.71 2.3 2.3 0 0 1-1.06.25 2.26 2.26 0 0 1-1.26-.36 2.45 2.45 0 0 1-.86-1 3.52 3.52 0 0 1-.3-1.5 3.46 3.46 0 0 1 .3-1.48 2.42 2.42 0 0 1 .85-1 2.35 2.35 0 0 1 1.27-.35 2.08 2.08 0 0 1 1 .25 1.72 1.72 0 0 1 .71.68v-3.33zm-1.7 6.52a2.54 2.54 0 0 0 0-2.64 1.24 1.24 0 0 0-1-.47 1.31 1.31 0 0 0-1.06.46 2 2 0 0 0-.37 1.3 2.08 2.08 0 0 0 .37 1.33 1.26 1.26 0 0 0 1.05.48 1.29 1.29 0 0 0 1.01-.46zm8.14-4.03v5.46h-1.32v-.84a1.76 1.76 0 0 1-.69.69 2 2 0 0 1-1 .24c-1.34 0-2-.75-2-2.25v-3.3h1.34v3.31a1.34 1.34 0 0 0 .24.88 1 1 0 0 0 .75.28 1.24 1.24 0 0 0 1-.39 1.52 1.52 0 0 0 .35-1v-3zm5.43 5.2a2.27 2.27 0 0 1-1-1 3 3 0 0 1-.34-1.48 3.13 3.13 0 0 1 .35-1.5 2.49 2.49 0 0 1 1-1 2.88 2.88 0 0 1 1.48-.37 3.31 3.31 0 0 1 1.13.19 2.15 2.15 0 0 1 .87.5l-.37 1a2.65 2.65 0 0 0-.74-.43 2.11 2.11 0 0 0-.77-.15 1.46 1.46 0 0 0-1.14.46 1.91 1.91 0 0 0-.41 1.33 2 2 0 0 0 .4 1.32 1.48 1.48 0 0 0 1.15.45 2.11 2.11 0 0 0 .77-.15 2.91 2.91 0 0 0 .74-.43l.37.95a2.63 2.63 0 0 1-.89.51 3.75 3.75 0 0 1-1.16.18 3 3 0 0 1-1.44-.38zm5.85-7.67v1.33h-1.5v-1.33zm-1.42 2.47h1.34v5.46h-1.34zm7.61 2.8h-3.76a1.91 1.91 0 0 0 .44 1.29 1.52 1.52 0 0 0 1.17.42 2.71 2.71 0 0 0 1.67-.58l.38.93a2.94 2.94 0 0 1-1 .5 3.51 3.51 0 0 1-1.15.19 2.84 2.84 0 0 1-2.11-.76 2.77 2.77 0 0 1-.77-2.07 3.08 3.08 0 0 1 .34-1.48 2.36 2.36 0 0 1 .94-1 2.54 2.54 0 0 1 1.37-.37 2.3 2.3 0 0 1 1.78.73 2.94 2.94 0 0 1 .65 2zm-3.28-1.65a1.63 1.63 0 0 0-.44.93H144a1.47 1.47 0 0 0-.37-.93 1.13 1.13 0 0 0-.85-.31 1.25 1.25 0 0 0-.87.31zm4.43-3.64h1.34v8h-1.34z"/>
</svg>
