<?xml version="1.0" standalone="no"?>
<!DOCTYPE svg PUBLIC "-//W3C//DTD SVG 1.1//EN" "http://www.w3.org/Graphics/SVG/1.1/DTD/svg11.dtd" >
<svg xmlns="http://www.w3.org/2000/svg" xmlns:xlink="http://www.w3.org/1999/xlink" version="1.1">
<metadata></metadata>
<defs>
<font id="muliitalic" horiz-adv-x="1228" >
<font-face units-per-em="2048" ascent="1638" descent="-410" />
<missing-glyph horiz-adv-x="534" />
<glyph unicode="&#xfb01;" horiz-adv-x="1171" d="M45 899l10 131h201l12 160q14 160 101.5 244t226.5 84q68 0 135 -19l-12 -139q-57 14 -98 14q-80 0 -130.5 -46t-58.5 -161l-10 -137h631l-80 -1030h-166l72 899h-469l-72 -899h-164l72 899h-201zM887 1284l14 193h207l-14 -193h-207z" />
<glyph unicode="&#xfb02;" horiz-adv-x="1177" d="M45 899l12 131h199l12 160q14 160 101.5 244t226.5 84q68 0 135 -19l-12 -139q-57 14 -98 14q-80 0 -130.5 -46t-58.5 -161l-10 -137h295l-12 -131h-295l-72 -899h-164l72 899h-201zM809 0l121 1507h166l-121 -1507h-166z" />
<glyph horiz-adv-x="0" />
<glyph unicode="&#xd;" horiz-adv-x="534" />
<glyph horiz-adv-x="0" />
<glyph horiz-adv-x="0" />
<glyph unicode=" "  horiz-adv-x="534" />
<glyph unicode="&#x09;" horiz-adv-x="534" />
<glyph unicode="&#xa0;" horiz-adv-x="534" />
<glyph unicode="!" horiz-adv-x="473" d="M92 0l17 211h208l-14 -211h-211zM174 383l33 1075h209l-140 -1075h-102z" />
<glyph unicode="&#x22;" horiz-adv-x="868" d="M205 885v573h196l-86 -573h-110zM619 885v573h196l-86 -573h-110z" />
<glyph unicode="#" horiz-adv-x="1241" d="M61 377l9 121h211l131 479h-258l8 121h282l99 360h129l-99 -360h332l99 360h129l-99 -360h183l-9 -121h-207l-131 -479h256l-10 -121h-278l-103 -377h-131l103 377h-330l-103 -377h-131l103 377h-185zM410 498h331l131 479h-331z" />
<glyph unicode="$" d="M63 172l76 129q90 -82 186.5 -123t213.5 -49l41 522q-129 41 -215 84t-143.5 119t-57.5 193q0 119 60.5 214t168 151t246.5 63l18 221h144l-17 -228q123 -14 224.5 -59t171.5 -119l-76 -129q-137 139 -338 164l-43 -553q127 -39 210 -79t138 -110.5t55 -179.5 q0 -117 -56 -208t-160.5 -147t-243.5 -64l-19 -222h-141l16 224q-287 20 -459 186zM336 1059q0 -92 66.5 -147.5t189.5 -98.5l41 518q-139 -10 -218 -81.5t-79 -190.5zM672 131q137 14 209.5 82t72.5 178q0 82 -62.5 131t-180.5 88z" />
<glyph unicode="%" horiz-adv-x="1923" d="M156 981q0 231 96 363.5t268 132.5q166 0 254 -102.5t88 -295.5q0 -233 -96 -363t-270 -130q-164 0 -252 101t-88 294zM305 965q0 -133 47 -196.5t146 -63.5q104 0 158.5 101t54.5 292q0 133 -47.5 196.5t-143.5 63.5q-106 0 -160.5 -100.5t-54.5 -292.5zM420 0l958 1458 h160l-956 -1458h-162zM1098 381q0 231 97 363.5t267 132.5q168 0 256 -101.5t88 -296.5q0 -233 -96 -363t-268 -130q-166 0 -255 102t-89 293zM1251 365q0 -133 46 -197t145 -64q104 0 158.5 100.5t54.5 293.5q0 133 -46 196.5t-145 63.5q-106 0 -159.5 -100.5t-53.5 -292.5 z" />
<glyph unicode="&#x26;" horiz-adv-x="1372" d="M106 365q0 137 83 241.5t264 210.5q-92 109 -129 183.5t-37 152.5q0 143 98 231.5t258 88.5q152 0 241 -79t89 -212q0 -111 -67.5 -197t-237.5 -192l340 -390q98 184 110 453h148q-18 -336 -162 -563q114 -121 282 -197l-96 -114q-168 78 -278 192q-88 -92 -200 -140 t-239 -48q-139 0 -244.5 48t-164 133t-58.5 198zM270 371q0 -115 84 -182.5t228 -67.5q201 -1 340 155l-381 441q-145 -88 -208 -166t-63 -180zM446 1153q0 -57 28 -112.5t108 -149.5q139 84 191 145.5t52 134.5q0 78 -48 126.5t-130 48.5q-90 0 -145.5 -53.5t-55.5 -139.5z " />
<glyph unicode="'" horiz-adv-x="454" d="M205 885v573h196l-86 -573h-110z" />
<glyph unicode="(" horiz-adv-x="649" d="M211 387q0 78 6 158q18 236 92 460t211 453h144q-131 -256 -194.5 -475t-80.5 -438q-6 -86 -6 -170q0 -348 131 -748h-135q-86 197 -127 382.5t-41 377.5z" />
<glyph unicode=")" horiz-adv-x="651" d="M-6 -373q129 260 192.5 479.5t81.5 438.5q6 84 6 168q0 360 -133 745h140q166 -373 165 -756q0 -78 -6 -157q-18 -238 -92 -460t-215 -458h-139z" />
<glyph unicode="*" horiz-adv-x="931" d="M121 1161l49 121l293 -108l14 319h129l-37 -322l312 111l30 -121l-317 -92l180 -254l-110 -74l-158 269l-203 -269l-98 74l219 254z" />
<glyph unicode="+" d="M113 524l10 129h440l35 441h127l-35 -441h440l-12 -129h-438l-35 -440h-127l35 440h-440z" />
<glyph unicode="," horiz-adv-x="473" d="M86 -176q88 92 104 176h-98l17 211h208l-10 -152q-8 -88 -42 -158.5t-105 -136.5z" />
<glyph unicode="-" horiz-adv-x="878" d="M150 481l10 137h577l-10 -137h-577z" />
<glyph unicode="." horiz-adv-x="473" d="M92 0l17 211h208l-14 -211h-211z" />
<glyph unicode="/" horiz-adv-x="583" d="M-92 -113l653 1647h152l-656 -1647h-149z" />
<glyph unicode="0" d="M119 621q0 408 142 631t401 223q240 0 363.5 -163t123.5 -474q0 -408 -143.5 -631t-403.5 -223q-237 0 -360 162.5t-123 474.5zM289 594q0 -240 77.5 -354.5t241.5 -114.5q180 0 274.5 188.5t94.5 550.5q0 240 -78 354.5t-240 114.5q-182 0 -276 -188.5t-94 -550.5z" />
<glyph unicode="1" d="M223 0l13 141h319l88 1106l-315 -188l14 162l391 237h96l-104 -1317h322l-13 -141h-811z" />
<glyph unicode="2" d="M131 0l8 127l559 561q123 125 176.5 220.5t53.5 193.5q0 109 -67.5 170t-186.5 61q-113 0 -216.5 -41t-211.5 -127l-51 129q94 86 222 133.5t267 47.5q188 0 300 -99.5t112 -271.5q0 -129 -64.5 -247t-220.5 -273l-449 -443h717l-10 -141h-938z" />
<glyph unicode="3" d="M84 166l74 129q100 -86 202.5 -127t217.5 -41q156 0 242.5 76t86.5 215q0 252 -319 252h-166l12 141h150q160 0 252 80t92 217q0 102 -70 163.5t-188 61.5q-219 0 -424 -168l-51 129q92 86 222 133.5t267 47.5q186 0 299 -96.5t113 -258.5q0 -129 -72 -229t-197 -146 q117 -34 181.5 -116t64.5 -207q0 -131 -61.5 -229.5t-174 -152.5t-264.5 -54q-143 0 -268 46t-221 134z" />
<glyph unicode="4" d="M86 317l8 127l780 1014h142l-80 -1001h223l-12 -140h-223l-25 -317h-166l25 317h-672zM276 457h492l57 712z" />
<glyph unicode="5" d="M133 166l74 129q100 -86 200.5 -127t210.5 -41q156 0 250.5 96t94.5 256q0 133 -82 214t-217 81q-217 0 -340 -170h-117l65 854h877l-12 -139h-705l-41 -514q59 53 138 81.5t165 28.5q129 0 228.5 -53t153.5 -149.5t54 -220.5q0 -152 -64.5 -266.5t-181 -177 t-268.5 -62.5q-139 0 -263 46t-220 134z" />
<glyph unicode="6" d="M123 610q0 262 73.5 458t211 301.5t321.5 105.5q129 0 249 -46.5t214 -134.5l-74 -129q-92 82 -191.5 125t-193.5 43q-188 0 -302 -155.5t-136 -450.5l-4 -49q53 111 156.5 174t232.5 63q133 0 234.5 -55t156.5 -156.5t55 -232.5q0 -139 -62.5 -249.5t-171 -174 t-245.5 -63.5q-250 0 -387 162.5t-137 463.5zM324 434q0 -139 88 -224t231 -85q141 0 229.5 95t88.5 247q0 139 -86.5 223t-225.5 84q-143 0 -234 -95t-91 -245z" />
<glyph unicode="7" d="M199 1317l10 141h962l-10 -125l-776 -1333h-180l768 1317h-774z" />
<glyph unicode="8" d="M78 367q0 143 88 244.5t246 138.5q-113 39 -177.5 127t-64.5 208q0 182 136 286t376 104q211 0 340 -97.5t129 -263.5q0 -131 -80 -228.5t-219 -137.5q129 -37 202.5 -130.5t73.5 -222.5q0 -125 -67.5 -218t-190 -142t-286.5 -49q-236 0 -371 103.5t-135 277.5zM248 387 q0 -127 89 -193.5t249 -68.5q176 0 276.5 72.5t100.5 203.5q0 121 -84 193t-252 86q-193 -18 -286 -93t-93 -200zM336 1069q0 -115 80 -185.5t221 -86.5q162 18 253 98t91 201q0 115 -80 177t-225 62q-166 0 -253 -68.5t-87 -197.5z" />
<glyph unicode="9" d="M74 164l76 129q190 -168 385 -168q186 0 300.5 156.5t135.5 449.5l4 49q-53 -109 -156.5 -173t-230.5 -64q-133 0 -234.5 56t-157 156.5t-55.5 231.5q0 139 61.5 250t170 174.5t245.5 63.5q254 0 391.5 -163t137.5 -464q0 -262 -75 -457.5t-213 -301t-320 -105.5 q-127 0 -248 46t-217 134zM307 991q0 -139 85 -223t224 -84q95 0 169.5 43t116.5 121t42 176q0 137 -88 223t-229 86q-143 0 -231.5 -95t-88.5 -247z" />
<glyph unicode=":" horiz-adv-x="475" d="M92 0l17 211h210l-16 -211h-211zM156 795l16 213h211l-16 -213h-211z" />
<glyph unicode=";" horiz-adv-x="473" d="M86 -176q88 92 104 176h-98l17 211h208l-10 -152q-8 -88 -42 -158.5t-105 -136.5zM156 795l16 213h211l-16 -213h-211z" />
<glyph unicode="&#x3c;" d="M113 522l10 131l1044 455l-10 -139l-883 -381l822 -379l-11 -143z" />
<glyph unicode="=" d="M96 317l10 129h1006l-8 -129h-1008zM127 731l12 129h1008l-10 -129h-1010z" />
<glyph unicode="&#x3e;" d="M76 66l10 143l883 379l-822 381l11 139l972 -455l-10 -131z" />
<glyph unicode="?" horiz-adv-x="915" d="M238 1249l12 154q68 35 145.5 53.5t149.5 18.5q172 0 273.5 -82t101.5 -217q0 -82 -30 -151t-73 -121t-117 -128q-100 -104 -153 -180t-72 -178l-6 -37h-100l4 51q6 90 36.5 164t69.5 127t105 127q84 94 122.5 158.5t38.5 148.5q0 82 -58 129t-161 47q-141 0 -288 -84z M285 0l14 211h211l-14 -211h-211z" />
<glyph unicode="@" horiz-adv-x="1914" d="M113 565q0 272 114.5 477t314 316.5t447.5 111.5q264 0 453.5 -108.5t286 -282.5t96.5 -368q0 -203 -60.5 -332t-154.5 -187.5t-201 -58.5q-111 0 -174.5 48t-69.5 136h-4q-51 -86 -130 -135t-183 -49q-135 0 -219 95.5t-84 265.5q0 141 54 265t153.5 198.5t228.5 74.5 q98 0 170 -47t94 -121h2l25 144h135l-98 -562q-8 -57 -9 -73q0 -70 33 -99.5t101 -29.5q59 0 118.5 46t100.5 150.5t41 270.5q0 164 -78 309t-237.5 235.5t-389.5 90.5q-211 0 -380 -95.5t-266 -271.5t-97 -414q0 -229 89 -399t257 -263t397 -93q174 0 302 50t196 140h180 q-88 -145 -264 -229t-414 -84q-266 0 -464.5 109.5t-305 308t-106.5 460.5zM676 500q0 -121 58.5 -188.5t142.5 -67.5q104 0 180 62.5t114.5 161.5t38.5 210q0 117 -57 178.5t-156 61.5q-98 0 -170.5 -60.5t-111.5 -157t-39 -200.5z" />
<glyph unicode="A" horiz-adv-x="1503" d="M-2 0l756 1458h145l528 -1458h-170l-131 375h-761l-189 -375h-178zM436 514h641l-264 750z" />
<glyph unicode="B" horiz-adv-x="1396" d="M143 0l113 1458h565q229 0 348 -93t119 -265q0 -129 -66.5 -219t-199.5 -136q121 -32 183.5 -116t62.5 -209q0 -199 -132 -309.5t-368 -110.5h-625zM322 139h440q340 0 340 279q0 252 -316 252h-424zM375 811h407q164 0 251 69.5t87 204.5q0 233 -313 234h-393z" />
<glyph unicode="C" horiz-adv-x="1400" d="M143 668q0 246 85 428t244 280.5t374 98.5q160 0 292 -46.5t224 -138.5l-76 -127q-96 88 -199.5 127t-238.5 39q-252 0 -391.5 -176t-139.5 -487q0 -258 123 -397.5t351 -139.5q227 0 428 168l53 -129q-195 -184 -504 -184q-190 0 -330.5 81.5t-217.5 236.5t-77 366z" />
<glyph unicode="D" horiz-adv-x="1529" d="M141 0l113 1458h483q330 0 507 -175t177 -495q0 -373 -194.5 -580.5t-548.5 -207.5h-537zM322 143h346q287 0 433 166t146 482q0 524 -524 524h-307z" />
<glyph unicode="E" horiz-adv-x="1206" d="M141 0l115 1458h924l-11 -139h-755l-41 -508h714l-12 -141h-713l-43 -531h756l-10 -139h-924z" />
<glyph unicode="F" horiz-adv-x="1155" d="M141 0l115 1458h903l-12 -141h-731l-41 -506h690l-10 -141h-693l-53 -670h-168z" />
<glyph unicode="G" horiz-adv-x="1497" d="M143 653q0 250 89.5 435.5t253 286t384.5 100.5q311 0 508 -185l-75 -129q-104 90 -205 130t-226 40q-262 -2 -408.5 -180t-146.5 -492q0 -258 126 -396t376 -138q166 0 338 57l33 445h-363l13 133h516l-53 -674q-92 -45 -228.5 -73.5t-265.5 -28.5q-319 0 -492.5 177 t-173.5 492z" />
<glyph unicode="H" horiz-adv-x="1568" d="M141 0l115 1458h168l-51 -647h872l51 647h168l-114 -1458h-168l53 670h-873l-53 -670h-168z" />
<glyph unicode="I" horiz-adv-x="528" d="M141 0l113 1458h172l-115 -1458h-170z" />
<glyph unicode="J" horiz-adv-x="673" d="M-80 -365l12 146q82 -16 138 -17q102 0 152 59.5t63 199.5l114 1435h170l-114 -1438q-16 -209 -105.5 -305t-263.5 -96q-68 0 -166 16z" />
<glyph unicode="K" horiz-adv-x="1298" d="M143 0l113 1458h170l-53 -665l757 665h226l-819 -710l745 -748h-209l-706 696l-56 -696h-168z" />
<glyph unicode="L" horiz-adv-x="1116" d="M141 0l115 1458h170l-104 -1315h731l-11 -143h-901z" />
<glyph unicode="M" horiz-adv-x="1738" d="M143 0l113 1458h141l451 -1259l645 1259h139l-112 -1458h-156l86 1077l-557 -1077h-119l-391 1077l-84 -1077h-156z" />
<glyph unicode="N" horiz-adv-x="1527" d="M141 0l115 1458h131l784 -1169l93 1169h159l-114 -1458h-129l-785 1169l-94 -1169h-160z" />
<glyph unicode="O" horiz-adv-x="1581" d="M143 668q0 244 84 427t237.5 282.5t358.5 99.5q201 0 347.5 -83t224.5 -238t78 -368q0 -244 -84 -426t-238 -281t-358 -99q-201 0 -347.5 82.5t-224.5 237.5t-78 366zM315 666q0 -260 124 -399.5t354 -139.5q155 0 269 80t175 229.5t61 354.5q0 260 -122.5 400 t-352.5 140q-158 0 -271.5 -80t-175 -229.5t-61.5 -355.5z" />
<glyph unicode="P" horiz-adv-x="1335" d="M141 0l115 1458h561q223 0 345 -104.5t122 -276.5q0 -211 -137 -323.5t-379 -112.5h-408l-49 -641h-170zM373 780h387q174 0 266 73t92 216q0 117 -77.5 183.5t-235.5 66.5h-391z" />
<glyph unicode="Q" horiz-adv-x="1581" d="M143 668q0 244 84 427t237.5 282.5t358.5 99.5q201 0 347.5 -83t224.5 -238t78 -368q0 -299 -125 -503.5t-344 -272.5q82 -160 235 -297l-125 -106q-82 63 -158.5 163.5t-130.5 209.5h-32q-201 0 -347.5 82.5t-224.5 237.5t-78 366zM315 666q0 -260 124 -399.5 t354 -139.5q155 0 269 80t175 229.5t61 354.5q0 260 -122.5 400t-352.5 140q-158 0 -271.5 -80t-175 -229.5t-61.5 -355.5z" />
<glyph unicode="R" horiz-adv-x="1419" d="M143 0l113 1458h594q221 0 342 -99t121 -280q0 -164 -84 -270.5t-250 -142.5q61 -17 101 -66t67 -139l139 -461h-176l-147 485q-27 88 -88.5 120t-172.5 32h-342l-51 -637h-166zM371 776h424q354 0 354 293q0 250 -309 250h-426z" />
<glyph unicode="S" horiz-adv-x="1275" d="M72 168l75 129q111 -90 226.5 -131t257.5 -41q178 0 273 66.5t95 187.5q0 74 -47 122t-116.5 75.5t-190.5 62.5q-154 45 -249 86t-161.5 122t-66.5 214q0 125 66.5 218t188.5 144.5t286 51.5q154 0 286.5 -48.5t227.5 -136.5l-76 -129q-201 172 -440 172 q-178 0 -273.5 -69.5t-95.5 -194.5q0 -82 50 -135t125 -83t202 -67q147 -43 239.5 -81.5t156 -114.5t63.5 -197q0 -188 -146.5 -297.5t-398.5 -109.5q-172 0 -308.5 45t-248.5 139z" />
<glyph unicode="T" horiz-adv-x="1234" d="M88 1315l12 143h1186l-10 -143h-508l-104 -1315h-170l104 1315h-510z" />
<glyph unicode="U" horiz-adv-x="1497" d="M172 500q0 49 2 75l70 883h168l-70 -880q-2 -23 -2 -66q0 -385 385 -385q203 0 313.5 104.5t124.5 321.5l72 905h168l-72 -889q-23 -293 -176.5 -439t-433.5 -146q-272 0 -410.5 132t-138.5 384z" />
<glyph unicode="V" horiz-adv-x="1427" d="M78 1458h178l436 -1247l631 1247h176l-751 -1458h-146z" />
<glyph unicode="W" horiz-adv-x="2277" d="M143 1458h170l320 -1218l518 1218l129 -2l322 -1220l514 1222h165l-622 -1458h-146l-321 1192l-510 -1192h-143z" />
<glyph unicode="X" horiz-adv-x="1335" d="M-23 0l615 750l-473 708h196l381 -581l469 581h203l-584 -715l496 -743h-199l-401 616l-500 -616h-203z" />
<glyph unicode="Y" horiz-adv-x="1243" d="M37 1458h192l406 -727l520 727h197l-639 -868l-47 -590h-170l47 592z" />
<glyph unicode="Z" horiz-adv-x="1220" d="M53 0l8 125l922 1192h-825l12 141h1028l-10 -123l-922 -1194h850l-12 -141h-1051z" />
<glyph unicode="[" horiz-adv-x="649" d="M158 -373l143 1831h406l-9 -131h-241l-125 -1567h241l-8 -133h-407z" />
<glyph unicode="\" horiz-adv-x="583" d="M35 1534h151l396 -1647h-152z" />
<glyph unicode="]" horiz-adv-x="649" d="M-51 -373l8 133h242l125 1567h-244l10 131h406l-144 -1831h-403z" />
<glyph unicode="^" d="M76 291l536 1009h131l375 -1009h-137l-313 848l-449 -848h-143z" />
<glyph unicode="_" horiz-adv-x="1034" d="M-31 -109l8 109h1002l-8 -109h-1002z" />
<glyph unicode="`" horiz-adv-x="614" d="M59 1559h180l178 -418h-114z" />
<glyph unicode="a" d="M98 483q0 170 60.5 299t170 201t253.5 72q123 0 214 -54.5t136 -152.5l14 182h162l-82 -1030h-162l15 166q-49 -86 -141.5 -133t-200.5 -47q-131 0 -230.5 60t-154 173t-54.5 264zM266 481q0 -170 82 -265t232 -95q151 0 239 117.5t88 318.5q0 176 -79.5 268.5 t-229.5 92.5q-156 0 -244 -116t-88 -321z" />
<glyph unicode="b" d="M121 0l119 1507h166l-54 -633q51 84 143.5 132.5t198.5 48.5q129 0 228.5 -61.5t155 -174t55.5 -262.5q0 -170 -60.5 -300t-171 -200.5t-252.5 -70.5q-123 0 -214 52t-136 148l-14 -186h-164zM324 481q0 -174 80.5 -267t232.5 -93q151 0 239.5 115.5t88.5 320.5 q0 172 -82 266.5t-230 94.5q-154 0 -241.5 -117t-87.5 -320z" />
<glyph unicode="c" horiz-adv-x="1013" d="M98 483q0 172 63.5 301t181.5 200t278 71q113 0 208 -36t164 -99l-65 -121q-78 61 -152 90t-155 29q-168 0 -260.5 -117t-92.5 -322q0 -168 84 -262t236 -94q82 0 151.5 28.5t145.5 90.5l47 -123q-68 -61 -162 -97t-197 -36q-143 0 -250.5 61.5t-166 174t-58.5 261.5z " />
<glyph unicode="d" d="M98 481q0 170 60.5 300t170 202t253.5 72q123 0 213 -53.5t135 -149.5l51 655h164l-119 -1507h-162l13 168q-49 -86 -141.5 -134t-200.5 -48q-129 0 -228.5 60t-154 173t-54.5 262zM266 485q0 -174 82 -269t230 -95q153 0 241 117.5t88 318.5q0 176 -79.5 268.5 t-231.5 92.5q-154 0 -242 -116t-88 -317z" />
<glyph unicode="e" horiz-adv-x="1114" d="M98 483q0 168 62.5 298t177.5 202t266 72q197 0 311.5 -114t114.5 -327q0 -45 -6 -94h-760v-41q0 -170 84 -264t244 -94q193 0 338 119l49 -121q-66 -61 -174.5 -97t-218.5 -36q-150 0 -259.5 61.5t-169 174t-59.5 261.5zM276 629h609v8q0 137 -71 213q-73 78 -202 78 q-135 0 -221 -77t-115 -222z" />
<glyph unicode="f" horiz-adv-x="690" d="M45 899l12 131h199l12 160q14 160 101.5 244t226.5 84q68 0 135 -19l-12 -139q-57 14 -98 14q-80 0 -130.5 -46t-58.5 -161l-10 -137h295l-12 -131h-295l-72 -899h-164l72 899h-201z" />
<glyph unicode="g" horiz-adv-x="1236" d="M100 506q0 162 60.5 287t170 193.5t255.5 68.5q125 0 216 -53.5t138 -149.5l12 178h164l-82 -1020q-37 -467 -485 -467q-238 0 -412 109l43 135q94 -59 179 -84t192 -25q293 0 321 322l17 211q-49 -86 -141.5 -133t-200.5 -47q-205 0 -326 129t-121 346zM268 506 q0 -164 81 -251t235 -87q155 0 244.5 109.5t89.5 300.5q0 164 -83 252t-233 88q-156 0 -245 -110t-89 -302z" />
<glyph unicode="h" horiz-adv-x="1198" d="M119 0l119 1507h165l-51 -630q53 86 144.5 132t203.5 46q172 0 263.5 -91.5t91.5 -265.5q0 -37 -2 -55l-52 -643h-163l51 633q2 14 2 43q0 239 -227 239h-2q-145 0 -231.5 -86t-98.5 -239l-47 -590h-166z" />
<glyph unicode="i" horiz-adv-x="487" d="M121 0l82 1030h166l-82 -1030h-166zM201 1278l16 189h203l-14 -189h-205z" />
<glyph unicode="j" horiz-adv-x="487" d="M-188 -432l12 139q55 -16 98 -16q172 0 189 207l92 1132h164l-93 -1153q-14 -162 -100 -245t-227 -83q-68 0 -135 19zM201 1278l16 189h203l-14 -189h-205z" />
<glyph unicode="k" horiz-adv-x="1054" d="M121 0l119 1507h163l-75 -950l518 471h215l-553 -496l522 -532h-209l-497 502l-39 -502h-164z" />
<glyph unicode="l" horiz-adv-x="487" d="M119 0l121 1507h166l-121 -1507h-166z" />
<glyph unicode="m" horiz-adv-x="1800" d="M119 0l59 741q8 82 8 193q0 63 -2 96h156l4 -166q102 190 330 191q244 0 305 -195q53 92 144 143.5t208 51.5q160 0 242 -88t82 -258q0 -43 -2 -66l-49 -643h-164l49 635q2 18 2 55q0 115 -50 170t-153 55q-131 0 -209 -85t-88 -244l-47 -586h-164l49 635q2 18 2 55 q0 115 -50 170t-152 55q-131 0 -208 -85t-89 -244l-47 -586h-166z" />
<glyph unicode="n" horiz-adv-x="1198" d="M119 0l59 741q8 84 8 193q0 63 -2 96h156l4 -170q51 94 144.5 144.5t211.5 50.5q172 0 263.5 -91.5t91.5 -265.5q0 -37 -2 -55l-52 -643h-163l51 633q2 14 2 43q0 239 -227 239h-2q-145 0 -231.5 -86t-98.5 -239l-47 -590h-166z" />
<glyph unicode="o" horiz-adv-x="1171" d="M98 483q0 172 62.5 301t175.5 200t262 71q143 0 250.5 -61.5t166 -175t58.5 -263.5q0 -172 -62.5 -301t-175 -198.5t-262.5 -69.5q-143 0 -250.5 61.5t-166 174t-58.5 261.5zM266 477q0 -174 80 -265t232 -91q155 0 241 118.5t86 321.5q0 170 -81 263.5t-226 93.5 q-156 0 -244 -119t-88 -322z" />
<glyph unicode="p" d="M84 -442l94 1183q8 84 8 193q0 63 -2 96h156l4 -172q47 92 141.5 144.5t206.5 52.5q131 0 230.5 -60.5t155 -174t55.5 -263.5q0 -170 -61.5 -300t-171 -200.5t-253.5 -70.5q-121 0 -213 53t-135 149l-49 -630h-166zM322 481q0 -174 80.5 -267t232.5 -93 q153 0 240.5 115.5t87.5 320.5q0 172 -82 266.5t-228 94.5q-156 0 -243.5 -117t-87.5 -320z" />
<glyph unicode="q" d="M96 483q0 170 60.5 299t171 201t252.5 72q127 0 220 -57.5t136 -161.5l31 194h155q-29 -168 -39 -289l-94 -1183h-164l47 602q-51 -82 -141 -128t-196 -46q-131 0 -230.5 60t-154 173t-54.5 264zM262 481q0 -170 83 -265t230 -95q154 0 242 117.5t88 318.5 q0 176 -81 268.5t-228 92.5q-156 0 -245 -116t-89 -321z" />
<glyph unicode="r" horiz-adv-x="741" d="M119 0l59 741q8 139 8 209q0 53 -2 80h156l2 -166q49 90 140 140.5t198 50.5q53 -1 92 -13l-14 -149q-53 16 -107 16q-150 0 -229.5 -93t-87.5 -228l-49 -588h-166z" />
<glyph unicode="s" horiz-adv-x="1015" d="M66 119l65 123q84 -66 168 -95.5t182 -29.5q252 0 252 157q0 70 -60.5 106t-185.5 71q-109 33 -175 61.5t-113 85.5t-47 150q0 139 110.5 223t294.5 84q111 0 209 -36t160 -99l-66 -121q-141 123 -303 123q-119 0 -183.5 -43t-64.5 -123q0 -70 60.5 -106t185.5 -70 q111 -33 177.5 -62t113.5 -86t47 -149q0 -139 -112.5 -218t-301.5 -79q-119 0 -225.5 33.5t-187.5 99.5z" />
<glyph unicode="t" horiz-adv-x="716" d="M45 899l10 131h201l20 264l170 60l-24 -324h295l-12 -131h-293l-45 -563l-2 -35q0 -96 43 -135t122 -39q59 0 109 18l-10 -139q-61 -20 -142 -20q-137 0 -212.5 72.5t-75.5 213.5q0 27 2 41l45 586h-201z" />
<glyph unicode="u" horiz-adv-x="1181" d="M143 336q0 39 2 59l50 635h165l-51 -624q-2 -14 -2 -44q0 -239 223 -239h2q139 0 223.5 86t96.5 240l47 581h164l-80 -1030h-162l13 168q-51 -88 -141.5 -135t-200.5 -47q-168 0 -258.5 89t-90.5 261z" />
<glyph unicode="v" horiz-adv-x="1087" d="M63 1028h168l285 -850l420 850h170l-524 -1028h-158z" />
<glyph unicode="w" horiz-adv-x="1779" d="M96 1030h168l228 -833l364 833h145l232 -837l362 837h170l-462 -1030h-160l-234 805l-354 -805h-160z" />
<glyph unicode="x" horiz-adv-x="1095" d="M-18 0l471 532l-365 498h199l268 -379l332 379h200l-440 -502l383 -528h-199l-290 412l-357 -412h-202z" />
<glyph unicode="y" horiz-adv-x="1087" d="M8 -334q147 33 225 86t138 166l49 92l-357 1020h168l287 -854l418 854h170l-576 -1124q-90 -176 -207.5 -258t-287.5 -113z" />
<glyph unicode="z" horiz-adv-x="1060" d="M61 0l11 113l704 786h-620l10 131h823l-6 -119l-700 -782h659l-10 -129h-871z" />
<glyph unicode="{" horiz-adv-x="724" d="M102 506l7 76l57 14q82 16 116.5 59t43.5 133l30 392q10 135 92 206.5t216 71.5h120l-10 -131h-106q-61 0 -101.5 -43t-48.5 -123l-31 -401q-8 -92 -55 -146.5t-113 -68.5q61 -16 101.5 -71.5t34.5 -145.5l-33 -404q-6 -80 27.5 -122t95.5 -42h106l-10 -133h-121 q-139 0 -207.5 72t-58.5 207l31 393q2 14 2 41q0 70 -30 102.5t-101 49.5z" />
<glyph unicode="|" horiz-adv-x="538" d="M121 -373l143 1831h162l-145 -1831h-160z" />
<glyph unicode="}" horiz-adv-x="724" d="M-51 -373l8 133h104q63 0 103.5 42t48.5 122l31 404q6 90 56 145t114 72q-61 14 -101.5 68.5t-33.5 146.5l32 401q6 80 -28.5 123t-96.5 43h-106l10 131h121q131 0 202.5 -71.5t63.5 -206.5l-31 -392q-2 -14 -2 -38q0 -70 30 -104t101 -50l56 -14l-4 -76l-60 -14 q-82 -16 -116.5 -59.5t-42.5 -133.5l-31 -393q-10 -135 -89 -207t-220 -72h-119z" />
<glyph unicode="~" d="M113 530q45 96 117.5 148.5t164.5 52.5q68 0 127.5 -24.5t141.5 -69.5q66 -37 105.5 -53.5t78.5 -16.5q66 0 108.5 36t75.5 99l101 -55q-49 -98 -121 -150.5t-164 -52.5q-68 0 -126 24t-140 71q-70 37 -109 54t-78 17q-63 0 -107 -35.5t-77 -101.5z" />
<glyph unicode="&#xa1;" horiz-adv-x="473" d="M63 -373l132 996h102l-27 -996h-207zM156 795l14 213h211l-16 -213h-209z" />
<glyph unicode="&#xa2;" horiz-adv-x="1269" d="M193 483q0 246 125.5 398.5t343.5 171.5l18 229h139l-18 -233q172 -20 289 -129l-66 -121q-121 92 -233 112l-64 -786q68 6 127 34.5t127 82.5l47 -123q-59 -55 -140 -89t-171 -42l-19 -232h-139l19 236q-178 29 -281.5 160t-103.5 331zM365 479q0 -139 58 -229t167 -117 l61 780q-139 -23 -212.5 -136t-73.5 -298z" />
<glyph unicode="&#xa3;" d="M53 0l8 117q115 51 166.5 119.5t61.5 177.5l20 256h-203l11 121h200l23 286q16 184 132 291t304 107q131 0 247 -47.5t202 -137.5l-76 -129q-84 84 -180.5 128t-194.5 44q-119 0 -187.5 -68.5t-78.5 -199.5l-21 -274h373l-8 -121h-373l-16 -213q-10 -125 -48 -199 t-118 -117h827l-10 -141h-1061z" />
<glyph unicode="&#xa5;" d="M57 1458h191l389 -622l493 622h189l-524 -661h313l-10 -123h-385l-15 -191h385l-10 -121h-385l-29 -362h-167l28 362h-387l10 121h385l15 191h-385l10 123h313z" />
<glyph unicode="&#xa7;" horiz-adv-x="1110" d="M70 -254l69 123q86 -63 166 -90t176 -27q123 0 188.5 59.5t65.5 168.5q0 72 -39 126t-127 105l-192 108q-147 86 -212 168t-65 189q0 88 37 166t101 129q-23 57 -23 123q0 172 115.5 274t300.5 105q102 0 200.5 -35t165.5 -97l-65 -120q-141 117 -303 116 q-115 0 -181.5 -63.5t-66.5 -167.5q0 -70 39 -122t129 -105l188 -111q150 -88 215.5 -171t65.5 -189q0 -80 -38 -156t-103 -129q25 -57 24 -129q0 -176 -113.5 -277.5t-302.5 -101.5q-244 0 -415 131zM258 700q0 -63 46 -119.5t153 -121.5l184 -109q107 -64 160 -121 q55 72 55 158q0 66 -45 121t-152 121l-184 110q-106 63 -160 121q-57 -70 -57 -160z" />
<glyph unicode="&#xa8;" horiz-adv-x="614" d="M102 1262l12 176h185l-15 -176h-182zM454 1262l15 176h184l-14 -176h-185z" />
<glyph unicode="&#xa9;" horiz-adv-x="1685" d="M104 731q0 207 97.5 375t266.5 265t376 97t376 -97t266 -266t97 -374q0 -207 -97 -376t-267 -267t-375 -98t-375 98t-267.5 267t-97.5 376zM201 731q0 -182 84 -330.5t231.5 -233.5t327.5 -85t326.5 85t230.5 233.5t84 330.5q0 180 -84 327.5t-230.5 232.5t-326.5 85 t-327.5 -85t-231.5 -232.5t-84 -327.5zM440 731q0 203 114 324t306 121q88 0 170 -30t139 -83l-49 -111q-119 96 -248 97q-131 0 -201.5 -82t-70.5 -236q0 -156 70.5 -238.5t201.5 -82.5q129 0 248 96l49 -111q-59 -53 -141 -82.5t-168 -29.5q-192 0 -306 120.5t-114 327.5z " />
<glyph unicode="&#xaa;" horiz-adv-x="681" d="M102 1022q0 98 84 140t279 42h45l2 35q4 59 -23.5 88t-89.5 29q-106 0 -204 -62l-29 107q51 33 118.5 50t133.5 17q117 0 176 -56t59 -163q0 -25 -2 -37l-26 -360h-142l9 94q-29 -51 -76 -77.5t-109 -26.5q-88 0 -146.5 51t-58.5 129zM246 1032q0 -37 27.5 -61.5 t70.5 -24.5q64 0 108 42t50 108l2 30h-45q-119 0 -166 -20.5t-47 -73.5z" />
<glyph unicode="&#xab;" horiz-adv-x="911" d="M57 547l303 371h154l-293 -369l230 -369h-154zM432 547l303 371h154l-293 -369l230 -369h-154z" />
<glyph unicode="&#xac;" d="M129 739l10 127h1010l-45 -557h-127l35 430h-883z" />
<glyph unicode="&#xad;" horiz-adv-x="878" d="M150 481l10 137h577l-10 -137h-577z" />
<glyph unicode="&#xae;" horiz-adv-x="1685" d="M123 731q0 207 97 375t266 265t376 97t376 -97t266.5 -266t97.5 -374q0 -207 -97.5 -376t-267.5 -267t-375 -98t-375 98t-267 267t-97 376zM219 731q0 -182 85 -330.5t231.5 -233.5t326.5 -85t326.5 85t230.5 233.5t84 330.5q0 180 -84 327.5t-230.5 232.5t-326.5 85 t-327.5 -85t-231.5 -232.5t-84 -327.5zM518 293l68 874h346q147 0 225 -63.5t78 -183.5q0 -106 -63.5 -176t-178.5 -87q68 -20 107 -96l139 -268h-170l-141 280q-23 39 -49.5 54.5t-73.5 15.5h-107l-28 -350h-152zM705 762h206q172 0 172 151q0 70 -41 100.5t-133 30.5h-180 z" />
<glyph unicode="&#xaf;" horiz-adv-x="614" d="M61 1286l10 127h619l-10 -127h-619z" />
<glyph unicode="&#xb0;" horiz-adv-x="755" d="M131 1169q0 84 39 153t107.5 107.5t152.5 38.5t152.5 -38.5t108.5 -107.5t40 -153t-40 -153.5t-108.5 -108.5t-152.5 -39t-152.5 39t-107.5 108.5t-39 153.5zM248 1169q0 -84 51 -137t131 -53q82 0 133 53t51 137t-51 137.5t-133 53.5q-78 0 -130 -54.5t-52 -136.5z" />
<glyph unicode="&#xb1;" d="M70 0l10 129h1010l-11 -129h-1009zM119 610l10 127h440l29 357h127l-29 -357h443l-13 -127h-440l-29 -356h-127l29 356h-440z" />
<glyph unicode="&#xb4;" horiz-adv-x="614" d="M303 1141l233 418h199l-318 -418h-114z" />
<glyph unicode="&#xb5;" horiz-adv-x="1181" d="M82 -442l113 1472h165l-51 -624q-2 -14 -2 -44q0 -240 225 -239q139 0 223.5 86t96.5 240l47 581h164l-80 -1030h-162l13 168q-51 -88 -141.5 -135t-200.5 -47q-131 0 -209 61l-39 -489h-162z" />
<glyph unicode="&#xb6;" horiz-adv-x="1200" d="M135 1020q0 195 118 316.5t329 121.5h518l-146 -1831h-137l133 1706h-243l-134 -1706h-139l80 1014q-170 4 -274.5 106.5t-104.5 272.5z" />
<glyph unicode="&#xb7;" horiz-adv-x="475" d="M127 444l18 211h209l-16 -211h-211z" />
<glyph unicode="&#xb8;" horiz-adv-x="614" d="M66 -360l30 90q80 -29 156 -29q55 0 87 18.5t32 53.5q0 27 -18.5 41t-53.5 14q-45 0 -92 -18l-37 32l39 199h117l-27 -129q14 4 41 4q70 0 112 -37t42 -102q0 -78 -63.5 -127t-178.5 -49q-45 0 -96.5 10t-89.5 29z" />
<glyph unicode="&#xba;" horiz-adv-x="706" d="M94 1126q0 154 90 248t240 94q133 0 212 -78.5t79 -207.5q0 -154 -90 -247t-240 -93q-131 0 -211 78.5t-80 205.5zM244 1130q0 -82 36.5 -125.5t108.5 -43.5q84 0 131 57t47 162q0 82 -39 127t-108 45q-84 0 -130 -59.5t-46 -162.5z" />
<glyph unicode="&#xbb;" horiz-adv-x="909" d="M37 180l287 369l-236 369h156l241 -371l-297 -367h-151zM412 180l287 369l-236 369h156l241 -371l-297 -367h-151z" />
<glyph unicode="&#xbf;" horiz-adv-x="915" d="M2 -88q0 78 28.5 140.5t70.5 107.5t114 110q98 86 152.5 155t70.5 165l8 37h101l-4 -52q-6 -88 -37 -155.5t-71 -114.5t-103 -108q-80 -74 -119 -131.5t-39 -135.5q0 -82 59.5 -128t163.5 -46q141 0 285 82l-10 -155q-133 -70 -285 -70q-176 0 -280.5 83t-104.5 216z M403 795l17 213h211l-17 -213h-211z" />
<glyph unicode="&#xc0;" horiz-adv-x="1503" d="M-2 0l756 1458h145l528 -1458h-170l-131 375h-761l-189 -375h-178zM436 514h641l-264 750zM533 1896h172l188 -313h-114z" />
<glyph unicode="&#xc1;" horiz-adv-x="1503" d="M-2 0l756 1458h145l528 -1458h-170l-131 375h-761l-189 -375h-178zM436 514h641l-264 750zM779 1583l227 313h194l-307 -313h-114z" />
<glyph unicode="&#xc2;" horiz-adv-x="1503" d="M-2 0l756 1458h145l528 -1458h-170l-131 375h-761l-189 -375h-178zM436 514h641l-264 750zM535 1583l270 313h111l221 -313h-148l-131 213l-172 -213h-151z" />
<glyph unicode="&#xc3;" horiz-adv-x="1503" d="M-2 0l756 1458h145l528 -1458h-170l-131 375h-761l-189 -375h-178zM436 514h641l-264 750zM506 1626q6 119 61.5 178.5t141.5 59.5q43 0 79 -17.5t89 -50.5q39 -25 65.5 -38t51.5 -13q45 0 72.5 29.5t31.5 83.5h94q-6 -117 -62.5 -177.5t-142.5 -60.5q-43 0 -79.5 17.5 t-85.5 50.5q-45 29 -69 40t-48 11q-45 0 -74 -30t-33 -83h-92z" />
<glyph unicode="&#xc4;" horiz-adv-x="1503" d="M-2 0l756 1458h145l528 -1458h-170l-131 375h-761l-189 -375h-178zM436 514h641l-264 750zM574 1653l12 176h186l-16 -176h-182zM926 1653l14 176h185l-13 -176h-186z" />
<glyph unicode="&#xc5;" horiz-adv-x="1503" d="M-2 0l735 1419q-49 27 -78.5 74t-29.5 106q0 86 61.5 145.5t149.5 59.5q86 0 147 -59t61 -146q0 -66 -35.5 -115.5t-93.5 -72.5l512 -1411h-170l-131 375h-761l-189 -375h-178zM436 514h641l-264 750zM735 1599q0 -45 29 -74.5t72 -29.5q41 0 69.5 29.5t28.5 74.5 q0 43 -28.5 73t-69.5 30q-43 0 -72 -30t-29 -73z" />
<glyph unicode="&#xc6;" horiz-adv-x="2050" d="M-45 0l1001 1458h1067l-10 -141h-768l6 -506h680l-12 -141h-666l7 -529h661l-12 -141h-805l-2 375h-703l-252 -375h-192zM492 514h608l-6 803h-64z" />
<glyph unicode="&#xc7;" horiz-adv-x="1400" d="M143 668q0 246 85 428t244 280.5t374 98.5q160 0 292 -46.5t224 -138.5l-76 -127q-96 88 -199.5 127t-238.5 39q-252 0 -391.5 -176t-139.5 -487q0 -258 123 -397.5t351 -139.5q227 0 428 168l53 -129q-184 -174 -477 -184l-15 -72q14 4 41 4q70 0 112 -37t42 -102 q0 -78 -63.5 -127t-178.5 -49q-45 0 -96 10t-90 29l31 90q80 -29 155 -29q55 0 87 18.5t32 53.5q0 27 -18.5 41t-53.5 14q-45 0 -92 -18l-37 32l29 146q-250 29 -393.5 209t-143.5 471z" />
<glyph unicode="&#xc8;" horiz-adv-x="1206" d="M141 0l115 1458h924l-11 -139h-755l-41 -508h714l-12 -141h-713l-43 -531h756l-10 -139h-924zM453 1896h172l188 -313h-114z" />
<glyph unicode="&#xc9;" horiz-adv-x="1206" d="M141 0l115 1458h924l-11 -139h-755l-41 -508h714l-12 -141h-713l-43 -531h756l-10 -139h-924zM699 1583l227 313h194l-307 -313h-114z" />
<glyph unicode="&#xca;" horiz-adv-x="1206" d="M141 0l115 1458h924l-11 -139h-755l-41 -508h714l-12 -141h-713l-43 -531h756l-10 -139h-924zM455 1583l270 313h111l221 -313h-148l-131 213l-172 -213h-151z" />
<glyph unicode="&#xcb;" horiz-adv-x="1206" d="M141 0l115 1458h924l-11 -139h-755l-41 -508h714l-12 -141h-713l-43 -531h756l-10 -139h-924zM494 1653l12 176h186l-16 -176h-182zM846 1653l14 176h185l-13 -176h-186z" />
<glyph unicode="&#xcc;" horiz-adv-x="528" d="M49 1896h172l188 -313h-114zM141 0l113 1458h172l-115 -1458h-170z" />
<glyph unicode="&#xcd;" horiz-adv-x="528" d="M141 0l113 1458h172l-115 -1458h-170zM295 1583l227 313h194l-307 -313h-114z" />
<glyph unicode="&#xce;" horiz-adv-x="528" d="M51 1583l270 313h111l221 -313h-148l-131 213l-172 -213h-151zM141 0l113 1458h172l-115 -1458h-170z" />
<glyph unicode="&#xcf;" horiz-adv-x="528" d="M90 1653l12 176h186l-16 -176h-182zM141 0l113 1458h172l-115 -1458h-170zM442 1653l14 176h185l-13 -176h-186z" />
<glyph unicode="&#xd0;" horiz-adv-x="1556" d="M29 672l10 135h190l52 651h483q328 0 506 -175t178 -495q0 -373 -194.5 -580.5t-551.5 -207.5h-534l51 672h-190zM348 143h346q287 0 433.5 166t146.5 482q0 260 -131 392t-391 132h-312l-41 -508h400l-11 -135h-399z" />
<glyph unicode="&#xd1;" horiz-adv-x="1527" d="M141 0l115 1458h131l784 -1169l93 1169h159l-114 -1458h-129l-785 1169l-94 -1169h-160zM520 1626q6 119 61.5 178.5t141.5 59.5q43 0 79 -17.5t89 -50.5q39 -25 65.5 -38t51.5 -13q45 0 72.5 29.5t31.5 83.5h94q-6 -117 -62.5 -177.5t-142.5 -60.5q-43 0 -79.5 17.5 t-85.5 50.5q-45 29 -69 40t-48 11q-45 0 -74 -30t-33 -83h-92z" />
<glyph unicode="&#xd2;" horiz-adv-x="1581" d="M143 668q0 244 84 427t237.5 282.5t358.5 99.5q201 0 347.5 -83t224.5 -238t78 -368q0 -244 -84 -426t-238 -281t-358 -99q-201 0 -347.5 82.5t-224.5 237.5t-78 366zM315 666q0 -260 124 -399.5t354 -139.5q155 0 269 80t175 229.5t61 354.5q0 260 -122.5 400 t-352.5 140q-158 0 -271.5 -80t-175 -229.5t-61.5 -355.5zM570 1896h172l188 -313h-114z" />
<glyph unicode="&#xd3;" horiz-adv-x="1581" d="M143 668q0 244 84 427t237.5 282.5t358.5 99.5q201 0 347.5 -83t224.5 -238t78 -368q0 -244 -84 -426t-238 -281t-358 -99q-201 0 -347.5 82.5t-224.5 237.5t-78 366zM315 666q0 -260 124 -399.5t354 -139.5q155 0 269 80t175 229.5t61 354.5q0 260 -122.5 400 t-352.5 140q-158 0 -271.5 -80t-175 -229.5t-61.5 -355.5zM816 1583l227 313h194l-307 -313h-114z" />
<glyph unicode="&#xd4;" horiz-adv-x="1581" d="M143 668q0 244 84 427t237.5 282.5t358.5 99.5q201 0 347.5 -83t224.5 -238t78 -368q0 -244 -84 -426t-238 -281t-358 -99q-201 0 -347.5 82.5t-224.5 237.5t-78 366zM315 666q0 -260 124 -399.5t354 -139.5q155 0 269 80t175 229.5t61 354.5q0 260 -122.5 400 t-352.5 140q-158 0 -271.5 -80t-175 -229.5t-61.5 -355.5zM572 1583l270 313h111l221 -313h-148l-131 213l-172 -213h-151z" />
<glyph unicode="&#xd5;" horiz-adv-x="1581" d="M143 668q0 244 84 427t237.5 282.5t358.5 99.5q201 0 347.5 -83t224.5 -238t78 -368q0 -244 -84 -426t-238 -281t-358 -99q-201 0 -347.5 82.5t-224.5 237.5t-78 366zM315 666q0 -260 124 -399.5t354 -139.5q155 0 269 80t175 229.5t61 354.5q0 260 -122.5 400 t-352.5 140q-158 0 -271.5 -80t-175 -229.5t-61.5 -355.5zM543 1626q6 119 61.5 178.5t141.5 59.5q43 0 79 -17.5t89 -50.5q39 -25 65.5 -38t51.5 -13q45 0 72.5 29.5t31.5 83.5h94q-6 -117 -62.5 -177.5t-142.5 -60.5q-43 0 -79.5 17.5t-85.5 50.5q-45 29 -69 40t-48 11 q-45 0 -74 -30t-33 -83h-92z" />
<glyph unicode="&#xd6;" horiz-adv-x="1581" d="M143 668q0 244 84 427t237.5 282.5t358.5 99.5q201 0 347.5 -83t224.5 -238t78 -368q0 -244 -84 -426t-238 -281t-358 -99q-201 0 -347.5 82.5t-224.5 237.5t-78 366zM315 666q0 -260 124 -399.5t354 -139.5q155 0 269 80t175 229.5t61 354.5q0 260 -122.5 400 t-352.5 140q-158 0 -271.5 -80t-175 -229.5t-61.5 -355.5zM611 1653l12 176h186l-16 -176h-182zM963 1653l14 176h185l-13 -176h-186z" />
<glyph unicode="&#xd8;" horiz-adv-x="1581" d="M143 668q0 244 84 427t237.5 282.5t358.5 99.5q199 0 346 -82l107 159l115 -71l-113 -168q94 -90 144.5 -223.5t50.5 -303.5q0 -244 -84 -426t-238 -281t-358 -99q-199 0 -347 81l-106 -159l-113 71l111 168q-94 90 -144.5 223.5t-50.5 301.5zM315 666q0 -246 113 -387 l657 989q-111 63 -262 63q-158 0 -271.5 -80t-175 -229.5t-61.5 -355.5zM530 190q111 -63 263 -63q155 0 269 80t175 229.5t61 354.5q0 246 -110 387z" />
<glyph unicode="&#xd9;" horiz-adv-x="1497" d="M172 500q0 49 2 75l70 883h168l-70 -880q-2 -23 -2 -66q0 -385 385 -385q203 0 313.5 104.5t124.5 321.5l72 905h168l-72 -889q-23 -293 -176.5 -439t-433.5 -146q-272 0 -410.5 132t-138.5 384zM531 1896h172l188 -313h-114z" />
<glyph unicode="&#xda;" horiz-adv-x="1497" d="M172 500q0 49 2 75l70 883h168l-70 -880q-2 -23 -2 -66q0 -385 385 -385q203 0 313.5 104.5t124.5 321.5l72 905h168l-72 -889q-23 -293 -176.5 -439t-433.5 -146q-272 0 -410.5 132t-138.5 384zM777 1583l227 313h194l-307 -313h-114z" />
<glyph unicode="&#xdb;" horiz-adv-x="1497" d="M172 500q0 49 2 75l70 883h168l-70 -880q-2 -23 -2 -66q0 -385 385 -385q203 0 313.5 104.5t124.5 321.5l72 905h168l-72 -889q-23 -293 -176.5 -439t-433.5 -146q-272 0 -410.5 132t-138.5 384zM533 1583l270 313h111l221 -313h-148l-131 213l-172 -213h-151z" />
<glyph unicode="&#xdc;" horiz-adv-x="1497" d="M172 500q0 49 2 75l70 883h168l-70 -880q-2 -23 -2 -66q0 -385 385 -385q203 0 313.5 104.5t124.5 321.5l72 905h168l-72 -889q-23 -293 -176.5 -439t-433.5 -146q-272 0 -410.5 132t-138.5 384zM572 1653l12 176h186l-16 -176h-182zM924 1653l14 176h185l-13 -176h-186z " />
<glyph unicode="&#xdd;" horiz-adv-x="1243" d="M37 1458h192l406 -727l520 727h197l-639 -868l-47 -590h-170l47 592zM648 1583l227 313h194l-307 -313h-114z" />
<glyph unicode="&#xde;" horiz-adv-x="1333" d="M141 0l115 1458h168l-25 -321h420q211 0 326 -95.5t115 -275.5q0 -201 -124 -310.5t-362 -109.5h-438l-27 -346h-168zM348 483h416q330 1 330 275q0 123 -73 181t-216 58h-418z" />
<glyph unicode="&#xdf;" horiz-adv-x="1300" d="M121 0l80 1012q43 506 514 506q182 0 286.5 -87.5t104.5 -244.5q0 -279 -348 -428q235 -58 348 -162t113 -266q0 -98 -51.5 -177t-143.5 -123t-209 -44q-104 0 -207.5 35.5t-175.5 97.5l66 123q82 -63 160.5 -93t164.5 -30q109 0 172.5 55t63.5 152q0 123 -112.5 204.5 t-371.5 153.5l9 127q186 70 275 159t89 210q0 207 -233 206q-164 0 -248 -86t-98 -270l-82 -1030h-166z" />
<glyph unicode="&#xe0;" d="M98 483q0 170 60.5 299t170 201t253.5 72q123 0 214 -54.5t136 -152.5l14 182h162l-82 -1030h-162l15 166q-49 -86 -141.5 -133t-200.5 -47q-131 0 -230.5 60t-154 173t-54.5 264zM266 481q0 -170 82 -265t232 -95q151 0 239 117.5t88 318.5q0 176 -79.5 268.5 t-229.5 92.5q-156 0 -244 -116t-88 -321zM367 1582h180l178 -418h-114z" />
<glyph unicode="&#xe1;" d="M98 483q0 170 60.5 299t170 201t253.5 72q123 0 214 -54.5t136 -152.5l14 182h162l-82 -1030h-162l15 166q-49 -86 -141.5 -133t-200.5 -47q-131 0 -230.5 60t-154 173t-54.5 264zM266 481q0 -170 82 -265t232 -95q151 0 239 117.5t88 318.5q0 176 -79.5 268.5 t-229.5 92.5q-156 0 -244 -116t-88 -321zM611 1164l233 418h199l-318 -418h-114z" />
<glyph unicode="&#xe2;" d="M98 483q0 170 60.5 299t170 201t253.5 72q123 0 214 -54.5t136 -152.5l14 182h162l-82 -1030h-162l15 166q-49 -86 -141.5 -133t-200.5 -47q-131 0 -230.5 60t-154 173t-54.5 264zM266 481q0 -170 82 -265t232 -95q151 0 239 117.5t88 318.5q0 176 -79.5 268.5 t-229.5 92.5q-156 0 -244 -116t-88 -321zM365 1164l278 418h117l211 -418h-151l-127 295l-170 -295h-158z" />
<glyph unicode="&#xe3;" d="M98 483q0 170 60.5 299t170 201t253.5 72q123 0 214 -54.5t136 -152.5l14 182h162l-82 -1030h-162l15 166q-49 -86 -141.5 -133t-200.5 -47q-131 0 -230.5 60t-154 173t-54.5 264zM266 481q0 -170 82 -265t232 -95q151 0 239 117.5t88 318.5q0 176 -79.5 268.5 t-229.5 92.5q-156 0 -244 -116t-88 -321zM342 1260q7 117 62 176.5t139 59.5q43 0 81 -17.5t89 -50.5q43 -27 68.5 -39t50.5 -12q45 0 71.5 29.5t30.5 82.5h92q-6 -117 -60 -176t-138 -59q-43 0 -81 17.5t-89 49.5q-45 29 -68.5 40.5t-48.5 11.5q-45 0 -73.5 -31t-32.5 -82 h-93z" />
<glyph unicode="&#xe4;" d="M98 483q0 170 60.5 299t170 201t253.5 72q123 0 214 -54.5t136 -152.5l14 182h162l-82 -1030h-162l15 166q-49 -86 -141.5 -133t-200.5 -47q-131 0 -230.5 60t-154 173t-54.5 264zM266 481q0 -170 82 -265t232 -95q151 0 239 117.5t88 318.5q0 176 -79.5 268.5 t-229.5 92.5q-156 0 -244 -116t-88 -321zM410 1285l12 176h185l-15 -176h-182zM762 1285l15 176h184l-14 -176h-185z" />
<glyph unicode="&#xe5;" d="M98 483q0 170 60.5 299t170 201t253.5 72q123 0 214 -54.5t136 -152.5l14 182h162l-82 -1030h-162l15 166q-49 -86 -141.5 -133t-200.5 -47q-131 0 -230.5 60t-154 173t-54.5 264zM266 481q0 -170 82 -265t232 -95q151 0 239 117.5t88 318.5q0 176 -79.5 268.5 t-229.5 92.5q-156 0 -244 -116t-88 -321zM476 1373q0 86 60 145t148 59q86 0 147.5 -59t61.5 -145t-61.5 -145.5t-147.5 -59.5q-88 0 -148 58.5t-60 146.5zM584 1373q0 -45 28.5 -75t71.5 -30t71 30t28 75q0 43 -28 72.5t-71 29.5t-71.5 -29.5t-28.5 -72.5z" />
<glyph unicode="&#xe6;" horiz-adv-x="1804" d="M109 285q0 176 141 260t463 84h106l2 30q2 14 2 43q0 111 -54 163.5t-167 52.5q-182 0 -356 -109l-47 121q78 57 192.5 91t224.5 34q252 0 328 -174q61 84 154.5 129t212.5 45q186 0 297.5 -115t111.5 -326q0 -45 -6 -94h-745v-41q0 -170 85 -264t244 -94q82 0 165 29.5 t157 89.5l47 -121q-61 -59 -167.5 -96t-207.5 -37q-158 0 -266 68.5t-158 195.5q-53 -125 -159.5 -194.5t-243.5 -69.5q-158 0 -257 83t-99 216zM276 297q0 -82 58.5 -132t152.5 -50q127 0 215.5 90t100.5 231l6 86h-88q-176 0 -273.5 -25.5t-134.5 -73.5t-37 -126zM981 629 h594q2 143 -68.5 221t-191.5 78q-135 0 -220 -77t-114 -222z" />
<glyph unicode="&#xe7;" horiz-adv-x="1013" d="M98 483q0 172 63.5 301t181.5 200t278 71q113 0 208 -36t164 -99l-65 -121q-78 61 -152 90t-155 29q-168 0 -260.5 -117t-92.5 -322q0 -168 84 -262t236 -94q82 0 151.5 28.5t145.5 90.5l47 -123q-66 -62 -158 -96.5t-194 -36.5l-15 -74q14 4 41 4q70 0 112 -37t42 -102 q0 -78 -63.5 -127t-178.5 -49q-45 0 -96 10t-90 29l30 90q80 -29 156 -29q55 0 87 18.5t32 53.5q0 27 -18.5 41t-53.5 14q-45 0 -92 -18l-37 32l31 154q-172 33 -270.5 162t-98.5 325z" />
<glyph unicode="&#xe8;" horiz-adv-x="1114" d="M98 483q0 168 62.5 298t177.5 202t266 72q197 0 311.5 -114t114.5 -327q0 -45 -6 -94h-760v-41q0 -170 84 -264t244 -94q193 0 338 119l49 -121q-66 -61 -174.5 -97t-218.5 -36q-150 0 -259.5 61.5t-169 174t-59.5 261.5zM276 629h609q2 143 -71 221t-202 78 q-135 0 -221 -77t-115 -222zM334 1582h180l178 -418h-114z" />
<glyph unicode="&#xe9;" horiz-adv-x="1114" d="M98 483q0 168 62.5 298t177.5 202t266 72q197 0 311.5 -114t114.5 -327q0 -45 -6 -94h-760v-41q0 -170 84 -264t244 -94q193 0 338 119l49 -121q-66 -61 -174.5 -97t-218.5 -36q-150 0 -259.5 61.5t-169 174t-59.5 261.5zM276 629h609q2 143 -71 221t-202 78 q-135 0 -221 -77t-115 -222zM578 1164l233 418h199l-318 -418h-114z" />
<glyph unicode="&#xea;" horiz-adv-x="1114" d="M98 483q0 168 62.5 298t177.5 202t266 72q197 0 311.5 -114t114.5 -327q0 -45 -6 -94h-760v-41q0 -170 84 -264t244 -94q193 0 338 119l49 -121q-66 -61 -174.5 -97t-218.5 -36q-150 0 -259.5 61.5t-169 174t-59.5 261.5zM276 629h609q2 143 -71 221t-202 78 q-135 0 -221 -77t-115 -222zM332 1164l278 418h117l211 -418h-151l-127 295l-170 -295h-158z" />
<glyph unicode="&#xeb;" horiz-adv-x="1114" d="M98 483q0 168 62.5 298t177.5 202t266 72q197 0 311.5 -114t114.5 -327q0 -45 -6 -94h-760v-41q0 -170 84 -264t244 -94q193 0 338 119l49 -121q-66 -61 -174.5 -97t-218.5 -36q-150 0 -259.5 61.5t-169 174t-59.5 261.5zM276 629h609q2 143 -71 221t-202 78 q-135 0 -221 -77t-115 -222zM377 1285l12 176h185l-15 -176h-182zM729 1285l15 176h184l-14 -176h-185z" />
<glyph unicode="&#xec;" horiz-adv-x="487" d="M-6 1582h180l178 -418h-114zM121 0l82 1030h166l-82 -1030h-166z" />
<glyph unicode="&#xed;" horiz-adv-x="487" d="M121 0l82 1030h166l-82 -1030h-166zM238 1164l233 418h199l-318 -418h-114z" />
<glyph unicode="&#xee;" horiz-adv-x="487" d="M-8 1164l278 418h117l211 -418h-151l-127 295l-170 -295h-158zM121 0l82 1030h166l-82 -1030h-166z" />
<glyph unicode="&#xef;" horiz-adv-x="487" d="M37 1285l12 176h185l-15 -176h-182zM121 0l82 1030h166l-82 -1030h-166zM389 1285l15 176h184l-14 -176h-185z" />
<glyph unicode="&#xf0;" horiz-adv-x="1179" d="M94 444q0 154 62.5 272t174 182.5t257.5 64.5q121 0 211 -46.5t139 -128.5q-23 242 -172 404l-344 -123l-29 105l283 98q-115 88 -275 133l52 119q236 -63 381 -197l278 98l27 -102l-226 -80q180 -221 181 -563q0 -354 -140.5 -524t-382.5 -170q-219 0 -348 125t-129 333 zM262 440q0 -154 80 -236.5t233 -82.5q156 0 243 105.5t87 289.5q0 143 -82 226t-227 83q-158 0 -246 -103.5t-88 -281.5z" />
<glyph unicode="&#xf1;" horiz-adv-x="1198" d="M119 0l59 741q8 84 8 193q0 63 -2 96h156l4 -170q51 94 144.5 144.5t211.5 50.5q172 0 263.5 -91.5t91.5 -265.5q0 -37 -2 -55l-52 -643h-163l51 633q2 14 2 43q0 240 -229 239q-145 0 -231.5 -86t-98.5 -239l-47 -590h-166zM327 1260q7 117 62 176.5t139 59.5 q43 0 81 -17.5t89 -50.5q43 -27 68.5 -39t50.5 -12q45 0 71.5 29.5t30.5 82.5h92q-6 -117 -60 -176t-138 -59q-43 0 -81 17.5t-89 49.5q-45 29 -68.5 40.5t-48.5 11.5q-45 0 -73.5 -31t-32.5 -82h-93z" />
<glyph unicode="&#xf2;" horiz-adv-x="1171" d="M98 483q0 172 62.5 301t175.5 200t262 71q143 0 250.5 -61.5t166 -175t58.5 -263.5q0 -172 -62.5 -301t-175 -198.5t-262.5 -69.5q-143 0 -250.5 61.5t-166 174t-58.5 261.5zM266 477q0 -174 80 -265t232 -91q155 0 241 118.5t86 321.5q0 170 -81 263.5t-226 93.5 q-156 0 -244 -119t-88 -322zM336 1582h180l178 -418h-114z" />
<glyph unicode="&#xf3;" horiz-adv-x="1171" d="M98 483q0 172 62.5 301t175.5 200t262 71q143 0 250.5 -61.5t166 -175t58.5 -263.5q0 -172 -62.5 -301t-175 -198.5t-262.5 -69.5q-143 0 -250.5 61.5t-166 174t-58.5 261.5zM266 477q0 -174 80 -265t232 -91q155 0 241 118.5t86 321.5q0 170 -81 263.5t-226 93.5 q-156 0 -244 -119t-88 -322zM580 1164l233 418h199l-318 -418h-114z" />
<glyph unicode="&#xf4;" horiz-adv-x="1171" d="M98 483q0 172 62.5 301t175.5 200t262 71q143 0 250.5 -61.5t166 -175t58.5 -263.5q0 -172 -62.5 -301t-175 -198.5t-262.5 -69.5q-143 0 -250.5 61.5t-166 174t-58.5 261.5zM266 477q0 -174 80 -265t232 -91q155 0 241 118.5t86 321.5q0 170 -81 263.5t-226 93.5 q-156 0 -244 -119t-88 -322zM334 1164l278 418h117l211 -418h-151l-127 295l-170 -295h-158z" />
<glyph unicode="&#xf5;" horiz-adv-x="1171" d="M98 483q0 172 62.5 301t175.5 200t262 71q143 0 250.5 -61.5t166 -175t58.5 -263.5q0 -172 -62.5 -301t-175 -198.5t-262.5 -69.5q-143 0 -250.5 61.5t-166 174t-58.5 261.5zM266 477q0 -174 80 -265t232 -91q155 0 241 118.5t86 321.5q0 170 -81 263.5t-226 93.5 q-156 0 -244 -119t-88 -322zM311 1260q7 117 62 176.5t139 59.5q43 0 81 -17.5t89 -50.5q43 -27 68.5 -39t50.5 -12q45 0 71.5 29.5t30.5 82.5h92q-6 -117 -60 -176t-138 -59q-43 0 -81 17.5t-89 49.5q-45 29 -68.5 40.5t-48.5 11.5q-45 0 -73.5 -31t-32.5 -82h-93z" />
<glyph unicode="&#xf6;" horiz-adv-x="1171" d="M98 483q0 172 62.5 301t175.5 200t262 71q143 0 250.5 -61.5t166 -175t58.5 -263.5q0 -172 -62.5 -301t-175 -198.5t-262.5 -69.5q-143 0 -250.5 61.5t-166 174t-58.5 261.5zM266 477q0 -174 80 -265t232 -91q155 0 241 118.5t86 321.5q0 170 -81 263.5t-226 93.5 q-156 0 -244 -119t-88 -322zM379 1285l12 176h185l-15 -176h-182zM731 1285l15 176h184l-14 -176h-185z" />
<glyph unicode="&#xf7;" d="M113 524l10 129h1007l-12 -129h-1005zM471 78l16 196h193l-16 -196h-193zM537 899l16 197h195l-17 -197h-194z" />
<glyph unicode="&#xf8;" horiz-adv-x="1171" d="M98 483q0 172 62.5 301t175.5 200t262 71q137 0 240 -56l88 134l94 -56l-92 -141q69 -68 107 -165t38 -216q0 -172 -62.5 -301t-175 -198.5t-262.5 -69.5q-135 0 -237 53l-88 -135l-96 59l92 141q-70 66 -108 162t-38 217zM264 477q1 -154 64 -246l430 650 q-63 37 -160 37q-158 0 -246 -119t-88 -322zM414 156q70 -35 164 -35q157 0 243 117.5t86 322.5q0 156 -65 246z" />
<glyph unicode="&#xf9;" horiz-adv-x="1181" d="M143 336q0 39 2 59l50 635h165l-51 -624q-2 -14 -2 -44q0 -240 225 -239q139 0 223.5 86t96.5 240l47 581h164l-80 -1030h-162l13 168q-51 -88 -141.5 -135t-200.5 -47q-168 0 -258.5 89t-90.5 261zM342 1582h180l178 -418h-114z" />
<glyph unicode="&#xfa;" horiz-adv-x="1181" d="M143 336q0 39 2 59l50 635h165l-51 -624q-2 -14 -2 -44q0 -240 225 -239q139 0 223.5 86t96.5 240l47 581h164l-80 -1030h-162l13 168q-51 -88 -141.5 -135t-200.5 -47q-168 0 -258.5 89t-90.5 261zM586 1164l233 418h199l-318 -418h-114z" />
<glyph unicode="&#xfb;" horiz-adv-x="1181" d="M143 336q0 39 2 59l50 635h165l-51 -624q-2 -14 -2 -44q0 -240 225 -239q139 0 223.5 86t96.5 240l47 581h164l-80 -1030h-162l13 168q-51 -88 -141.5 -135t-200.5 -47q-168 0 -258.5 89t-90.5 261zM340 1164l278 418h117l211 -418h-151l-127 295l-170 -295h-158z" />
<glyph unicode="&#xfc;" horiz-adv-x="1181" d="M143 336q0 39 2 59l50 635h165l-51 -624q-2 -14 -2 -44q0 -240 225 -239q139 0 223.5 86t96.5 240l47 581h164l-80 -1030h-162l13 168q-51 -88 -141.5 -135t-200.5 -47q-168 0 -258.5 89t-90.5 261zM385 1285l12 176h185l-15 -176h-182zM737 1285l15 176h184l-14 -176 h-185z" />
<glyph unicode="&#xfd;" horiz-adv-x="1087" d="M8 -334q147 33 225 86t138 166l49 92l-357 1020h168l287 -854l418 854h170l-576 -1124q-90 -176 -207.5 -258t-287.5 -113zM539 1164l233 418h199l-318 -418h-114z" />
<glyph unicode="&#xfe;" d="M86 -442l154 1933h163l-49 -614q51 84 142.5 131t197.5 47q129 0 228.5 -61.5t155 -174t55.5 -262.5q0 -170 -60.5 -300t-171 -200.5t-252.5 -70.5q-121 0 -212 52t-136 146l-51 -626h-164zM324 481q0 -174 80.5 -267t232.5 -93q151 0 239.5 115.5t88.5 320.5 q0 172 -82 266.5t-230 94.5q-154 0 -241.5 -117t-87.5 -320z" />
<glyph unicode="&#xff;" horiz-adv-x="1087" d="M8 -334q147 33 225 86t138 166l49 92l-357 1020h168l287 -854l418 854h170l-576 -1124q-90 -176 -207.5 -258t-287.5 -113zM338 1285l12 176h185l-15 -176h-182zM690 1285l15 176h184l-14 -176h-185z" />
<glyph unicode="&#x131;" horiz-adv-x="487" d="M121 0l82 1030h166l-82 -1030h-166z" />
<glyph unicode="&#x152;" horiz-adv-x="2162" d="M143 668q0 246 84 428t242 281.5t369 99.5q219 0 374 -107l7 88h915l-10 -139h-756l-39 -508h715l-12 -141h-713l-41 -531h756l-13 -139h-917l6 82q-141 -100 -334 -100t-336 82.5t-220 237.5t-77 366zM315 666q0 -260 124 -399.5t354 -139.5q88 0 172 28.5t151 84.5 l78 979q-61 55 -151.5 83.5t-192.5 28.5q-256 0 -395.5 -176t-139.5 -489z" />
<glyph unicode="&#x153;" horiz-adv-x="1910" d="M98 483q0 172 62.5 301t175.5 200t262 71q295 0 401 -244q59 117 165 180.5t249 63.5q188 0 300 -117t112 -344q0 -49 -6 -105h-750v-10q0 -170 86 -264t250 -94q82 0 166 29.5t158 89.5l47 -121q-63 -59 -170 -96t-207 -37q-152 0 -258.5 62.5t-161.5 178.5 q-59 -115 -163.5 -178t-246.5 -63q-141 0 -247.5 61.5t-165 174t-58.5 261.5zM266 477q0 -174 80 -265t232 -91q153 0 239 118.5t86 321.5q0 170 -80 263.5t-225 93.5q-156 0 -244 -119t-88 -322zM1077 598h602q6 162 -65.5 246t-196.5 84q-143 0 -230 -85t-110 -245z" />
<glyph unicode="&#x178;" horiz-adv-x="1243" d="M37 1458h192l406 -727l520 727h197l-639 -868l-47 -590h-170l47 592zM443 1653l12 176h186l-16 -176h-182zM795 1653l14 176h185l-13 -176h-186z" />
<glyph unicode="&#x192;" d="M8 -383l12 137h95q98 0 158.5 49.5t91.5 159.5l270 926h-250l8 121h279l35 120q47 170 152.5 253t258.5 83h107l-13 -135h-92q-98 0 -158.5 -49t-91.5 -160l-32 -112h254l-9 -121h-280l-275 -934q-47 -170 -153.5 -254t-259.5 -84h-107z" />
<glyph unicode="&#x2c6;" horiz-adv-x="614" d="M57 1141l278 418h117l211 -418h-151l-127 295l-170 -295h-158z" />
<glyph unicode="&#x2c7;" horiz-adv-x="614" d="M92 1559h149l127 -297l170 297h158l-277 -418h-116z" />
<glyph unicode="&#x2d8;" horiz-adv-x="614" d="M45 1464l108 45q70 -184 223 -184q74 0 135.5 42t112.5 142l103 -45q-53 -135 -147.5 -198.5t-211.5 -63.5q-114 0 -201.5 65.5t-121.5 196.5z" />
<glyph unicode="&#x2d9;" horiz-adv-x="614" d="M266 1255l16 189h203l-14 -189h-205z" />
<glyph unicode="&#x2da;" horiz-adv-x="614" d="M168 1350q0 86 60 145t148 59q86 0 147.5 -59t61.5 -145t-61.5 -145.5t-147.5 -59.5q-88 0 -148 58.5t-60 146.5zM276 1350q0 -45 28.5 -75t71.5 -30t71 30t28 75q0 43 -28 72.5t-71 29.5t-71.5 -29.5t-28.5 -72.5z" />
<glyph unicode="&#x2db;" horiz-adv-x="614" d="M-52 -195q0 109 79 185t222 96l23 -66q-190 -43 -190 -188q0 -59 32.5 -90t89.5 -31q51 0 125 35l25 -98q-33 -20 -80 -33.5t-94 -13.5q-107 0 -169.5 56t-62.5 148z" />
<glyph unicode="&#x2dc;" horiz-adv-x="614" d="M34 1237q7 117 62 176.5t139 59.5q43 0 81 -17.5t89 -50.5q43 -27 68.5 -39t50.5 -12q45 0 71.5 29.5t30.5 82.5h92q-6 -117 -60 -176t-138 -59q-43 0 -81 17.5t-89 49.5q-45 29 -68.5 40.5t-48.5 11.5q-45 0 -73.5 -31t-32.5 -82h-93z" />
<glyph unicode="&#x2dd;" horiz-adv-x="614" d="M192 1141l125 418h158l-199 -418h-84zM442 1141l125 418h158l-199 -418h-84z" />
<glyph unicode="&#x3a9;" horiz-adv-x="1611" d="M90 0l12 141h357q-164 154 -241 314.5t-77 341.5q0 207 89 360.5t255 236.5t392 83q201 0 346 -69t223 -197t78 -302q0 -219 -109.5 -407.5t-316.5 -360.5h354l-12 -141h-539l12 135q201 172 319 365.5t118 398.5t-126 318.5t-354 113.5q-264 0 -410.5 -144.5 t-146.5 -393.5q0 -166 83 -333t245 -325l-12 -135h-539z" />
<glyph unicode="&#x3c0;" horiz-adv-x="1212" d="M27 0q178 414 225 899h-213l12 131h1127l-13 -131h-250l-41 -512q-2 -14 -2 -43q0 -109 54.5 -161t173.5 -62l69 -4l-10 -131l-82 4q-190 10 -279 95t-89 257q0 39 2 59l39 498h-336q-25 -268 -76 -488.5t-135 -410.5h-176z" />
<glyph unicode="&#x2000;" horiz-adv-x="948" />
<glyph unicode="&#x2001;" horiz-adv-x="1896" />
<glyph unicode="&#x2002;" horiz-adv-x="948" />
<glyph unicode="&#x2003;" horiz-adv-x="1896" />
<glyph unicode="&#x2004;" horiz-adv-x="632" />
<glyph unicode="&#x2005;" horiz-adv-x="474" />
<glyph unicode="&#x2006;" horiz-adv-x="316" />
<glyph unicode="&#x2007;" horiz-adv-x="316" />
<glyph unicode="&#x2008;" horiz-adv-x="237" />
<glyph unicode="&#x2009;" horiz-adv-x="379" />
<glyph unicode="&#x200a;" horiz-adv-x="105" />
<glyph unicode="&#x2010;" horiz-adv-x="878" d="M150 481l10 137h577l-10 -137h-577z" />
<glyph unicode="&#x2011;" horiz-adv-x="878" d="M150 481l10 137h577l-10 -137h-577z" />
<glyph unicode="&#x2012;" horiz-adv-x="878" d="M150 481l10 137h577l-10 -137h-577z" />
<glyph unicode="&#x2013;" horiz-adv-x="1034" d="M-2 496l10 108h1034l-10 -108h-1034z" />
<glyph unicode="&#x2014;" horiz-adv-x="2068" d="M-2 496l10 108h2069l-11 -108h-2068z" />
<glyph unicode="&#x2018;" horiz-adv-x="473" d="M172 1022l12 149q6 86 41 159t109 140l72 -61q-89 -86 -105 -174h100l-18 -213h-211z" />
<glyph unicode="&#x2019;" horiz-adv-x="473" d="M184 1071q49 49 73 91t32 85h-99l15 211h213l-12 -149q-6 -86 -41 -158t-109 -141z" />
<glyph unicode="&#x201a;" horiz-adv-x="473" d="M86 -176q88 92 104 176h-98l17 211h208l-10 -152q-8 -88 -42 -158.5t-105 -136.5z" />
<glyph unicode="&#x201c;" horiz-adv-x="817" d="M172 1022l12 149q6 86 41 159t109 140l72 -61q-89 -86 -105 -174h100l-18 -213h-211zM516 1022l12 149q6 86 41 159t109 140l72 -61q-89 -86 -105 -174h100l-18 -213h-211z" />
<glyph unicode="&#x201d;" horiz-adv-x="817" d="M184 1071q49 49 73 91t32 85h-99l15 211h213l-12 -149q-6 -86 -41 -158t-109 -141zM528 1071q49 49 73 91t32 85h-99l15 211h213l-12 -149q-6 -86 -41 -158t-109 -141z" />
<glyph unicode="&#x201e;" horiz-adv-x="817" d="M86 -176q88 92 104 176h-98l17 211h208l-10 -152q-8 -88 -42 -158.5t-105 -136.5zM430 -176q88 92 104 176h-98l17 211h208l-10 -152q-8 -88 -42 -158.5t-105 -136.5z" />
<glyph unicode="&#x2020;" horiz-adv-x="671" d="M90 1118l8 109h234l18 248h125l-18 -248h231l-8 -109h-231l-62 -776h-127l62 776h-232z" />
<glyph unicode="&#x2021;" horiz-adv-x="671" d="M47 590l8 106h232l35 424h-232l8 109h234l18 246h125l-18 -246h231l-8 -109h-231l-35 -424h231l-8 -106h-231l-19 -248h-127l19 248h-232z" />
<glyph unicode="&#x2022;" horiz-adv-x="1083" d="M170 549q0 94 49 179t135 136t191 51q98 0 184 -48t137.5 -132t51.5 -186q0 -100 -50.5 -184t-136.5 -133.5t-186 -49.5q-101 0 -187 48.5t-137 133.5t-51 185z" />
<glyph unicode="&#x2026;" horiz-adv-x="1421" d="M92 0l17 211h208l-14 -211h-211zM565 0l17 211h211l-17 -211h-211zM1038 0l17 211h211l-17 -211h-211z" />
<glyph unicode="&#x202f;" horiz-adv-x="379" />
<glyph unicode="&#x2030;" horiz-adv-x="2744" d="M156 981q0 231 96 363.5t268 132.5q166 0 254 -102.5t88 -295.5q0 -233 -96 -363t-270 -130q-164 0 -252 101t-88 294zM305 965q0 -133 47 -196.5t146 -63.5q104 0 158.5 101t54.5 292q0 133 -47.5 196.5t-143.5 63.5q-106 0 -160.5 -100.5t-54.5 -292.5zM420 0l958 1458 h160l-956 -1458h-162zM1098 381q0 231 97 363.5t267 132.5q168 0 256 -101.5t88 -296.5q0 -233 -96 -363t-268 -130q-166 0 -255 102t-89 293zM1251 365q0 -133 46 -197t145 -64q104 0 158.5 100.5t54.5 293.5q0 133 -46 196.5t-145 63.5q-106 0 -159.5 -100.5t-53.5 -292.5 zM1919 381q0 231 96 363.5t269 132.5q166 0 254 -101.5t88 -296.5q0 -233 -96.5 -363t-268.5 -130q-164 0 -253 102t-89 293zM2071 365q0 -133 46 -197t146 -64q104 0 157.5 100.5t53.5 293.5q0 133 -46 196.5t-144 63.5q-106 0 -159.5 -100.5t-53.5 -292.5z" />
<glyph unicode="&#x2039;" horiz-adv-x="536" d="M57 547l303 371h154l-293 -369l230 -369h-154z" />
<glyph unicode="&#x203a;" horiz-adv-x="534" d="M37 180l287 369l-236 369h156l241 -371l-297 -367h-151z" />
<glyph unicode="&#x2044;" horiz-adv-x="358" d="M-346 25l975 1484l110 -75l-972 -1485z" />
<glyph unicode="&#x205f;" horiz-adv-x="474" />
<glyph unicode="&#x20ac;" d="M29 514l10 121h205v2q0 90 10 188h-201l10 123h211q53 252 194.5 389.5t352.5 137.5q137 0 251 -46.5t194 -138.5l-76 -129q-158 170 -367 170q-141 0 -237.5 -98t-139.5 -285h365l-10 -123h-375q-12 -88 -12 -190h370l-8 -121h-358q35 -387 344 -387q82 0 177 44 t183 126l56 -129q-78 -80 -198 -132t-220 -52q-221 0 -352.5 137t-157.5 393h-221z" />
<glyph unicode="&#x2122;" horiz-adv-x="1892" d="M80 1329l12 129h727l-10 -129h-287l-57 -741h-158l60 741h-287zM883 588l69 870h119l260 -579l346 579h125l-69 -870h-138l45 586l-268 -449h-104l-199 442l-45 -579h-141z" />
<glyph unicode="&#x2202;" d="M104 467q0 184 68 323.5t186.5 215t272.5 75.5q229 0 332 -176q-12 260 -134 399.5t-346 139.5h-92l8 127q57 10 125 10q293 0 451 -203.5t158 -578.5q0 -397 -144.5 -614.5t-410.5 -217.5q-219 0 -346.5 135.5t-127.5 364.5zM272 469q0 -166 83 -264.5t227 -98.5 q106 0 189 59.5t130 172.5t47 262q0 156 -83 249t-222 93q-168 0 -269.5 -126t-101.5 -347z" />
<glyph unicode="&#x2206;" horiz-adv-x="1611" d="M90 0l12 141h357q-164 154 -241 314.5t-77 341.5q0 207 89 360.5t255 236.5t392 83q201 0 346 -69t223 -197t78 -302q0 -219 -109.5 -407.5t-316.5 -360.5h354l-12 -141h-539l12 135q201 172 319 365.5t118 398.5t-126 318.5t-354 113.5q-264 0 -410.5 -144.5 t-146.5 -393.5q0 -166 83 -333t245 -325l-12 -135h-539z" />
<glyph unicode="&#x220f;" horiz-adv-x="1241" d="M47 -373l146 1831h1009l-145 -1831h-158l133 1688h-694l-133 -1688h-158z" />
<glyph unicode="&#x2211;" horiz-adv-x="1204" d="M16 -373l11 125l614 803l-489 780l8 123h1030l-10 -141h-832l445 -715l-9 -117l-555 -714h830l-12 -144h-1031z" />
<glyph unicode="&#x221a;" d="M6 524l12 129h295l203 -850l623 1766h139l-707 -1983h-133l-233 938h-199z" />
<glyph unicode="&#x221e;" d="M90 565q0 135 77 223.5t210 88.5q72 0 143.5 -41t110.5 -125q51 84 120.5 125t141.5 41q119 0 190.5 -74t71.5 -189q0 -141 -78 -228t-213 -87q-72 0 -141.5 41t-110.5 123q-51 -84 -121.5 -124t-142.5 -40q-119 0 -188.5 73.5t-69.5 192.5zM211 571q0 -70 41 -115.5 t110 -45.5q58 0 110 38.5t99 141.5q-57 176 -198 176q-76 0 -119 -56.5t-43 -138.5zM670 590q63 -180 200 -180q76 0 118 56t42 144q0 68 -40 112t-109 44q-57 0 -109.5 -38t-101.5 -138z" />
<glyph unicode="&#x222b;" d="M197 -362l12 141q51 -16 96 -17q78 0 126 45.5t58 155.5l93 1188q14 158 100 241t225 83q70 -1 131 -19l-10 -139q-55 14 -98 14q-76 0 -124 -45t-58 -156l-93 -1187q-14 -158 -100 -241t-225 -83q-70 0 -133 19z" />
<glyph unicode="&#x2248;" d="M96 324q45 96 118 148t165 52q66 0 123 -22.5t143 -69.5q70 -37 109 -54.5t77 -17.5q66 0 109 36t76 100l98 -56q-47 -96 -118.5 -149t-164.5 -53q-68 0 -127 24.5t-141 69.5q-72 39 -108.5 55t-75.5 16q-117 0 -182 -137zM129 737q45 96 117.5 148.5t165.5 52.5 q68 0 127 -24.5t141 -69.5q66 -37 105.5 -53.5t78.5 -16.5q66 0 109 36t74 99l102 -55q-49 -98 -121 -150.5t-164 -52.5q-68 0 -126 23.5t-140 70.5q-70 37 -108.5 54.5t-77.5 17.5q-63 0 -107.5 -36t-77.5 -101z" />
<glyph unicode="&#x2260;" d="M94 317l12 129h361l141 285h-481l12 129h533l137 279l113 -49l-113 -230h338l-10 -129h-392l-139 -285h506l-10 -129h-559l-137 -280l-115 51l112 229h-309z" />
<glyph unicode="&#x2264;" d="M70 0l10 129h1010l-11 -129h-1009zM119 608l10 131l1038 369l-10 -137l-848 -297l801 -295l-12 -139z" />
<glyph unicode="&#x2265;" d="M70 0l10 129h1010l-11 -129h-1009zM88 240l14 139l846 297l-801 295l11 137l981 -369l-13 -131z" />
<glyph unicode="&#x25ca;" d="M100 578l535 991h129l379 -991l-537 -992h-129zM240 578l313 -832l448 832l-313 829z" />
<glyph unicode="&#x25fc;" horiz-adv-x="1034" d="M0 0v1034h1034v-1034h-1034z" />
<glyph unicode="&#xf8ff;" horiz-adv-x="1361" d="M55 764h490l151 463l160 -463h492l-396 -299l146 -463l-402 279l-393 -279l146 463zM561 410h57v155l60 -112h49l59 112v-155h58v268h-56l-86 -162l-86 162h-55v-268z" />
</font>
</defs>
</svg>
