<svg xmlns="http://www.w3.org/2000/svg">
  <symbol id="arrow-top" viewBox="0 0 24 24">
    <circle cx="1.94" cy="13.55" r="1.94"/>
    <circle cx="5.03" cy="9.68" r="1.94"/>
    <circle cx="8.13" cy="5.81" r="1.94"/>
    <circle cx="12" cy="1.94" r="1.94"/>
    <circle cx="15.87" cy="5.81" r="1.94"/>
    <circle cx="18.97" cy="9.68" r="1.94"/>
    <circle cx="22.06" cy="13.55" r="1.94"/>
  </symbol>
  <symbol id="menu" viewBox="0 0 24 24">
    <path d="M3 18h18v-2H3v2zm0-5h18v-2H3v2zm0-7v2h18V6H3z"/>
  </symbol>
  <symbol id="network-facebook" viewBox="0 0 24 24">
    <path d="M22.7,0H1.3C0.6,0,0,0.6,0,1.3v21.4C0,23.4,0.6,24,1.3,24c0,0,0,0,0,0h11.5v-9.3H9.7v-3.6h3.1V8.4c0-3.1,1.9-4.8,4.7-4.8
    c0.9,0,1.9,0,2.8,0.1V7h-1.9c-1.5,0-1.8,0.7-1.8,1.8v2.3h3.6l-0.5,3.6h-3.2V24h6.1c0.7,0,1.3-0.6,1.3-1.3l0,0V1.3
    C24,0.6,23.4,0,22.7,0C22.7,0,22.7,0,22.7,0z"/>
    <path fill="#fff" d="M16.6,24v-9.3h3.1l0.5-3.6h-3.6V8.8c0-1.1,0.3-1.8,1.8-1.8h1.9V3.8c-0.9-0.1-1.9-0.1-2.8-0.1
    c-2.8,0-4.7,1.7-4.7,4.8v2.7H9.7v3.6h3.1V24H16.6z"/>
  </symbol>
  <symbol id="network-twitter" viewBox="0 0 24 24">
    <path d="M7.5,21.8c9.1,0,14-7.5,14-14c0-0.2,0-0.4,0-0.6c1-0.7,1.8-1.6,2.5-2.5c-0.9,0.4-1.9,0.7-2.8,0.8
      c1-0.6,1.8-1.6,2.2-2.7c-1,0.6-2,1-3.1,1.2c-1.9-2-5-2.1-7-0.2c-1.3,1.2-1.8,3-1.4,4.7c-4-0.2-7.6-2.1-10.1-5.1
      C0.4,5.4,1,8.3,3.2,9.7C2.4,9.7,1.6,9.5,1,9.1c0,0,0,0,0,0.1c0,2.3,1.7,4.4,4,4.8c-0.7,0.2-1.5,0.2-2.2,0.1c0.6,2,2.5,3.4,4.6,3.4
      c-1.7,1.4-3.9,2.1-6.1,2.1c-0.4,0-0.8,0-1.2-0.1C2.3,21,4.9,21.8,7.5,21.8"/>
  </symbol>
  <symbol id="network-youtube" viewBox="0 0 24 24">
    <path d="M23.5,6.2c-0.3-1-1.1-1.9-2.1-2.1C19.5,3.5,12,3.5,12,3.5s-7.5,0-9.4,0.5
      c-1,0.3-1.8,1.1-2.1,2.1C0,8.1,0,12,0,12s0,3.9,0.5,5.8c0.3,1,1.1,1.9,2.1,2.1c1.9,0.5,9.4,0.5,9.4,0.5s7.5,0,9.4-0.5
      c1-0.3,1.8-1.1,2.1-2.1C24,15.9,24,12,24,12S24,8.1,23.5,6.2z"/>
    <polygon fill="#fff" points="9.5,15.6 15.8,12 9.5,8.4 	"/>
  </symbol>
  <symbol id="place" viewBox="0 0 24 24">
    <path d="M12 2C8.13 2 5 5.13 5 9c0 5.25 7 13 7 13s7-7.75 7-13c0-3.87-3.13-7-7-7zm0 9.5c-1.38 0-2.5-1.12-2.5-2.5s1.12-2.5 2.5-2.5 2.5 1.12 2.5 2.5-1.12 2.5-2.5 2.5z"/>
  </symbol>
  <symbol id="print" viewBox="0 0 24 24">
    <path d="M19 8H5c-1.66 0-3 1.34-3 3v6h4v4h12v-4h4v-6c0-1.66-1.34-3-3-3zm-3 11H8v-5h8v5zm3-7c-.55 0-1-.45-1-1s.45-1 1-1 1 .45 1 1-.45 1-1 1zm-1-9H6v4h12V3z"/>  
  </symbol>
  <symbol id="share" viewBox="0 0 24 24">
    <path d="M18 16.08c-.76 0-1.44.3-1.96.77L8.91 12.7c.05-.23.09-.46.09-.7s-.04-.47-.09-.7l7.05-4.11c.54.5 1.25.81 2.04.81 1.66 0 3-1.34 3-3s-1.34-3-3-3-3 1.34-3 3c0 .24.04.47.09.7L8.04 9.81C7.5 9.31 6.79 9 6 9c-1.66 0-3 1.34-3 3s1.34 3 3 3c.79 0 1.5-.31 2.04-.81l7.12 4.16c-.05.21-.08.43-.08.65 0 1.61 1.31 2.92 2.92 2.92 1.61 0 2.92-1.31 2.92-2.92s-1.31-2.92-2.92-2.92z"/>
  </symbol>
</svg>