<svg xmlns="http://www.w3.org/2000/svg">
  <symbol id="arrow-top" viewBox="0 0 24 24">
    <circle cx="11.9" cy="6.9" r="1.7"/>
    <circle cx="15.4" cy="10.3" r="1.7"/>
    <circle cx="18.8" cy="13.7" r="1.7"/>
    <circle cx="22.3" cy="17" r="1.7"/>
    <circle cx="8.5" cy="10.2" r="1.7"/>
    <circle cx="5.1" cy="13.7" r="1.7"/>
    <circle cx="1.7" cy="17.1" r="1.7"/>
  </symbol>
  <symbol id="cadastre" viewBox="0 0 24 24">
    <path d="M22,2.4L22,2.4l-6.7-2L8.8,2.3l-6.6-2v0L1.3,0v21.4l7.4,2.3l6.5-1.9l5.5,1.7l0,0l1.9,0.6v-2V2.5L22,2.4z M11.3,16.1L11,13.4
      l1.1-0.4h8.6v1.6L11.3,16.1z M15.1,8.9h5.6V11h-5.3L15.1,8.9z M20.7,4v2.9h-5.9l-0.6-4.3l1-0.3L20.7,4z M12.3,3.2l1.2,7.8h-1.7
      l-3.3,1.2L6.7,3.6l2.1,0.6L12.3,3.2z M3.3,2.6L4.5,3l2.1,9.9L3.3,14L3.3,2.6L3.3,2.6z M3.3,20v-3.9L9.1,14l0.7,7.3l-1.1,0.3L3.3,20z
      M11.7,20.8L11.5,18l4.3-0.7v2.5l-0.5-0.2L11.7,20.8z M17.7,20.5V17l3.1-0.5v4.8L17.7,20.5z"/>
  </symbol>
  <symbol id="cross" viewBox="0 0 24 24">
    <polygon points="8,24 1.3,24 16,0 22.7,0 "/>
    <polygon points="22.7,24 16,24 2,0 8.7,0 "/>
  </symbol>
  <symbol id="export" viewBox="0 0 24 24">
    <path d="M19.8,3.1c-0.5,0-0.8,0.4-0.8,0.9c0,0.2,0.1,0.4,0.3,0.6L21,6.1h-5.1c0,0-0.1,0-0.1,0C15.4,6.2,15,6.6,15,7
      c0,0.5,0.4,0.8,0.9,0.8l0,0H21l-1.8,1.6c-0.4,0.3-0.4,0.8-0.1,1.2c0.3,0.4,0.8,0.4,1.2,0.1c0,0,0,0,0.1-0.1l3.3-3.1
      c0.3-0.3,0.4-0.8,0-1.2c0,0,0,0,0,0l-3.3-3.1C20.2,3.1,20,3.1,19.8,3.1z M0.8,4.8C0.3,4.8,0,5.2,0,5.6v10c0,0.5,0.4,0.8,0.8,0.8h7.5
      v1c-0.3,0.1-0.5,0.2-0.7,0.4c-0.7,0.5-1.2,1.3-1.2,2.3c0,0.5,0.4,0.8,0.8,0.8h6.1c0.5,0,0.8-0.4,0.8-0.8c0-0.9-0.5-1.7-1.2-2.3
      c-0.2-0.2-0.5-0.3-0.7-0.4v-1h7.5c0.5,0,0.8-0.4,0.8-0.8v-3.3c0-0.5-0.4-0.8-0.8-0.8c-0.5,0-0.8,0.4-0.8,0.8c0,0,0,0,0,0v2.5H1.7
      V6.4h12c0.5,0,0.8-0.4,0.8-0.8c0-0.5-0.4-0.8-0.8-0.8c0,0,0,0,0,0L0.8,4.8C0.8,4.8,0.8,4.8,0.8,4.8L0.8,4.8z M10,16.5h0.6V17H10
      V16.5z M10.3,18.7c0.7,0,1.3,0.2,1.7,0.5c0,0,0,0,0.1,0.1H8.6c0,0,0,0,0.1-0.1C9,18.9,9.6,18.7,10.3,18.7z"/>
  </symbol>
  <symbol id="flux" viewBox="0 0 24 24">
    <path d="M7.6,14.3L7.6,14.3c-0.1,0-0.2,0-0.3-0.1c0,0-4.3-3-6.3-4.4C0.7,9.5,0,9,0,8.3C0,7.6,0.6,7,1.3,7h1.6
      c0.3,0,0.5-0.2,0.5-0.5V3.5c0-0.7,0.6-1.3,1.3-1.3h5.8c0.7,0,1.3,0.6,1.3,1.3v3.1C11.8,6.8,12,7,12.3,7h1.6
      c0.7,0,1.3,0.6,1.3,1.3c0,0.7-0.7,1.2-1.1,1.5c-2,1.4-6.2,4.3-6.3,4.4C7.8,14.2,7.7,14.3,7.6,14.3z M1.3,7.9
      c-0.3,0-0.5,0.2-0.5,0.5c0,0.3,0.4,0.6,0.7,0.8c1.7,1.2,5.1,3.5,6,4.2c0.9-0.7,4.3-3,6-4.2c0.3-0.2,0.7-0.5,0.7-0.8
      c0-0.3-0.2-0.5-0.5-0.5h-1.6c-0.7,0-1.3-0.6-1.3-1.3V3.5c0-0.3-0.2-0.5-0.5-0.5H4.7C4.5,3,4.2,3.2,4.2,3.5v3.1
      c0,0.7-0.6,1.3-1.3,1.3L1.3,7.9L1.3,7.9z"/>
    <path d="M16.4,9.7L16.4,9.7c0.1,0,0.2,0,0.3,0.1c0,0,4.3,3,6.3,4.4c0.4,0.3,1.1,0.8,1.1,1.5c0,0.7-0.6,1.3-1.3,1.3h-1.6
      c-0.3,0-0.5,0.2-0.5,0.5v3.1c0,0.7-0.6,1.3-1.3,1.3h-5.8c-0.7,0-1.3-0.6-1.3-1.3v-3.1c0-0.3-0.2-0.5-0.5-0.5h-1.6
      c-0.7,0-1.3-0.6-1.3-1.3c0-0.7,0.7-1.2,1.1-1.5c2-1.4,6.2-4.3,6.3-4.4C16.2,9.8,16.3,9.7,16.4,9.7z"/>
  </symbol>
  <symbol id="fullscreen" viewBox="0 0 24 24">
    <path d="M6.5,2.5V0H0v6.5h2.5v-4H6.5z M21.5,6.5H24V0h-6.5v2.5h4V6.5z M2.5,17.5H0V24h6.5v-2.5h-4V17.5z M17.5,21.5V24H24v-6.5 h-2.5v4H17.5z"/>
  </symbol>
  <symbol id="fullscreen-out" viewBox="0 0 24 24">
    <path d="M4.8,19.2H0v-3.6h8.4V24H4.8V19.2z M19.2,19.2V24h-3.6v-8.4H24v3.6H19.2z M4.8,4.8V0h3.6v8.4H6.6H0V4.8H4.8z M19.2,4.8H24 v3.6h-8.4V0h3.6V4.8z"/>
  </symbol>
  <symbol id="gps" viewBox="0 0 24 24">
    <path d="M24,10.7h-2.7c-0.6-4.1-3.9-7.4-8-8V0h-2.6v2.7c-4.1,0.6-7.4,3.9-8,8H0v2.6h2.7c0.6,4.1,3.9,7.4,8,8V24h2.6v-2.7
      c4.1-0.6,7.4-3.9,8-8H24V10.7z M12,18.8c-3.7,0-6.8-3-6.8-6.8s3-6.8,6.8-6.8s6.8,3,6.8,6.8S15.7,18.8,12,18.8z"/>
  </symbol>
  <symbol id="map" viewBox="0 0 24 24">
    <path d="M8,0.4L0.7,2.7C0.3,2.8,0,3.3,0,3.7v19c0,0.6,0.7,1.1,1.3,0.9l7-2.2l7,2.2c0.2,0.1,0.4,0.1,0.6,0l7.3-2.3 c0.4-0.1,0.7-0.5,0.7-0.9v-19c0-0.6-0.7-1.1-1.3-1l-7,2.2l-7-2.2C8.4,0.3,8.2,0.3,8,0.4L8,0.4z M9.3,2.7l5.3,1.7v16.9l-5.3-1.7V2.7z"/>  
  </symbol>
  <symbol id="menu" viewBox="0 0 24 24">
    <rect y="1.2" width="24" height="5.6"/>
    <rect y="9.2" width="24" height="5.6"/>
    <rect y="17.2" width="24" height="5.6"/>
  </symbol>
  <symbol id="network-facebook" viewBox="0 0 24 24">
    <path d="M22.7,0H1.3C0.6,0,0,0.6,0,1.3v21.4C0,23.4,0.6,24,1.3,24c0,0,0,0,0,0h11.5v-9.3H9.7v-3.6h3.1V8.4c0-3.1,1.9-4.8,4.7-4.8
    c0.9,0,1.9,0,2.8,0.1V7h-1.9c-1.5,0-1.8,0.7-1.8,1.8v2.3h3.6l-0.5,3.6h-3.2V24h6.1c0.7,0,1.3-0.6,1.3-1.3l0,0V1.3
    C24,0.6,23.4,0,22.7,0C22.7,0,22.7,0,22.7,0z"/>
    <path fill="#fff" d="M16.6,24v-9.3h3.1l0.5-3.6h-3.6V8.8c0-1.1,0.3-1.8,1.8-1.8h1.9V3.8c-0.9-0.1-1.9-0.1-2.8-0.1
    c-2.8,0-4.7,1.7-4.7,4.8v2.7H9.7v3.6h3.1V24H16.6z"/>
  </symbol>
  <symbol id="network-google" viewBox="0 0 24 24">
    <circle cx="12" cy="12" r="11.9"/>
    <path fill="#fff" d="M8.8,6.5c-3,0-5.5,2.5-5.5,5.6s2.4,5.6,5.5,5.6c2,0,3.1-0.6,4.1-1.6
      c1-1,1.3-2.5,1.3-4.1c0-0.2,0-0.5,0-0.7H12h-0.4H8.8v2h3.1c-0.1,0.5-0.3,0.9-0.7,1.3c-0.6,0.6-1.3,1-2.5,1c-1.9,0-3.4-1.5-3.4-3.4
      c0-1.9,1.5-3.4,3.4-3.4c0.9,0,1.7,0.3,2.3,0.8l1.5-1.5l0,0C11.6,6.9,10.3,6.5,8.8,6.5L8.8,6.5z M17.6,9.7v1.6H16v1.6h1.6v1.6h1.6
      v-1.6h1.6v-1.6h-1.6V9.7H17.6z M11.6,10.1C11.6,10.1,11.6,10.1,11.6,10.1L11.6,10.1L11.6,10.1z"/>
  </symbol>
  <symbol id="network-twitter" viewBox="0 0 24 24">
    <path d="M7.5,21.8c9.1,0,14-7.5,14-14c0-0.2,0-0.4,0-0.6c1-0.7,1.8-1.6,2.5-2.5c-0.9,0.4-1.9,0.7-2.8,0.8
      c1-0.6,1.8-1.6,2.2-2.7c-1,0.6-2,1-3.1,1.2c-1.9-2-5-2.1-7-0.2c-1.3,1.2-1.8,3-1.4,4.7c-4-0.2-7.6-2.1-10.1-5.1
      C0.4,5.4,1,8.3,3.2,9.7C2.4,9.7,1.6,9.5,1,9.1c0,0,0,0,0,0.1c0,2.3,1.7,4.4,4,4.8c-0.7,0.2-1.5,0.2-2.2,0.1c0.6,2,2.5,3.4,4.6,3.4
      c-1.7,1.4-3.9,2.1-6.1,2.1c-0.4,0-0.8,0-1.2-0.1C2.3,21,4.9,21.8,7.5,21.8"/>
  </symbol>
  <symbol id="network-youtube" viewBox="0 0 24 24">
    <path d="M23.5,6.2c-0.3-1-1.1-1.9-2.1-2.1C19.5,3.5,12,3.5,12,3.5s-7.5,0-9.4,0.5
      c-1,0.3-1.8,1.1-2.1,2.1C0,8.1,0,12,0,12s0,3.9,0.5,5.8c0.3,1,1.1,1.9,2.1,2.1c1.9,0.5,9.4,0.5,9.4,0.5s7.5,0,9.4-0.5
      c1-0.3,1.8-1.1,2.1-2.1C24,15.9,24,12,24,12S24,8.1,23.5,6.2z"/>
    <polygon fill="#fff" points="9.5,15.6 15.8,12 9.5,8.4"/>
  </symbol>
  <symbol id="place" viewBox="0 0 24 24">
    <path d="M12 2C8.13 2 5 5.13 5 9c0 5.25 7 13 7 13s7-7.75 7-13c0-3.87-3.13-7-7-7zm0 9.5c-1.38 0-2.5-1.12-2.5-2.5s1.12-2.5 2.5-2.5 2.5 1.12 2.5 2.5-1.12 2.5-2.5 2.5z"/>
  </symbol>
  <symbol id="place-1850" viewBox="0 0 24 24">
    <path d="M15.1,22.1H9c-0.2,0-0.3,0.1-0.3,0.3v1.4C8.7,23.9,8.8,24,9,24h6.1c0.2,0,0.3-0.1,0.3-0.3v-1.4
      C15.3,22.2,15.2,22.1,15.1,22.1z"/>
    <path d="M8.7,6.8c0,0,0.3,0.1,0.4,0.1c0.1,0,0.2,0,0.2,0l0.2,1l0.4,0.8l0,0.6l0,0l2.1,1.6L14.2,9l0-0.3c0.4-0.4,0.5-0.8,0.6-1.4
      L14.9,7L15,6.7l0.1,0.1h0.2l0.2-0.1l0.1-0.2l0.1-0.3l0.2-0.5V4.9l-0.1-0.2l-0.1-0.1l-0.2,0V3.9c0-1.2,0.2-1.6-0.5-2.7L14.6,1
      l-0.4,0l-0.1-0.2l-0.4-0.4C11.6-0.5,10.2,0.1,8.7,2L8.5,3.1v1.5H8.2L8.1,4.7l0.1,1.1L8.7,6.8z"/>
    <path d="M12,21.5h2.7c-0.2-0.4-0.3-0.9-0.2-1.4H12H9.6c0,0.5-0.1,0.9-0.3,1.4H12z"/>
    <path d="M19.7,13.9l-0.4-1.1c-0.8-1.3-2-1.2-3.4-1.5l-1.1-1.2h-0.4l-0.2,0.1l-2.2,1.6L12,12l-0.1-0.1l-2.2-1.6l-0.2-0.1H9.1L8,11.3
      c-1.4,0.3-2.6,0.2-3.4,1.5l-0.4,1.1l-0.1,0.9c0.8,0.5,2.7,2.2,3.7,3.4c1,1.2,1.4,0.8,1.7,1.4H12h2.4c0.4-0.7,0.7-0.2,1.7-1.4
      c1-1.2,2.9-2.9,3.7-3.4L19.7,13.9z"/>
  </symbol>
  <symbol id="place-cassini" viewBox="0 0 24 24">
    <path d="M12,0C5.4,0,0,5.4,0,12c0,6.6,5.4,12,12,12c6.6,0,12-5.4,12-12C24,5.4,18.6,0,12,0 M16.4,8.9l-3.1,4.4l-8.8,6.1l6.1-8.8
      l8.8-6.1L16.4,8.9z"/>
    <polygon points="11.3,11.3 8.3,15.7 12.7,12.7 "/>
  </symbol>
  <symbol id="place-napoleon" viewBox="0 0 24 24">
    <path d="M16.1,10.5c0,0,0-0.1-0.1-0.1l2.6-1.7c-0.1-0.2-0.2-0.4-0.4-0.5l-2.7,1.7c-0.1-0.2-0.2-0.3-0.4-0.5c0,0-0.1,0-0.1,0
      c-0.2-0.1-0.4-0.1-0.6-0.1c-0.2-0.1-0.4-0.2-0.7-0.1c-0.2,0-0.4,0.1-0.5,0.3c-0.2,0-0.4,0.1-0.5,0.3c-0.2,0.2-0.3,0.4-0.3,0.6
      c-0.2,0.2-0.3,0.4-0.3,0.6c0,0.3,0.1,0.5,0.2,0.7c0,0.2,0,0.5,0.2,0.7c0.1,0.2,0.4,0.3,0.6,0.4c0.1,0.2,0.3,0.3,0.6,0.4
      c0.2,0.1,0.5,0,0.7-0.1c0.2,0.1,0.5,0,0.7-0.1c0.2-0.1,0.4-0.3,0.5-0.5c0.2-0.1,0.4-0.3,0.5-0.5c0.1-0.2,0.1-0.5,0-0.7
      c0,0,0-0.1,0-0.1C16.2,10.9,16.2,10.7,16.1,10.5z M15.4,11.6c-0.2,0.4-0.5,0.7-1,0.8c-0.7,0.1-1.3-0.3-1.5-1
      c-0.1-0.7,0.3-1.3,1-1.5c0.1,0,0.2,0,0.4,0c0.3,0,0.5,0.2,0.7,0.3c0.2,0.2,0.3,0.3,0.3,0.6c0,0,0,0.1,0,0.1
      C15.5,11.2,15.4,11.4,15.4,11.6z"/>
    <path d="M22.3,17.1c-0.6-0.5-1.1-1.1-1.5-1.8c-0.5-0.9-0.8-1.9-0.9-3.1c-0.1-1.1-0.4-2-0.9-2.9l-2.3,1.4c0,0.1,0,0.2,0,0.4
      c0,0.1,0,0.1-0.1,0.2c0.1,0.3,0.1,0.6,0,0.9c-0.1,0.3-0.3,0.5-0.6,0.7c-0.1,0.3-0.3,0.5-0.6,0.7c-0.3,0.1-0.6,0.2-0.9,0.1
      c-0.3,0.1-0.6,0.2-0.9,0.1c-0.3-0.1-0.6-0.3-0.7-0.5c-0.3-0.1-0.6-0.2-0.7-0.5s-0.3-0.6-0.2-0.9c-0.2-0.2-0.3-0.5-0.2-0.9
      c0-0.3,0.2-0.6,0.4-0.8c0-0.3,0.1-0.6,0.4-0.8C12.5,9.2,12.8,9,13,9c0.2-0.2,0.4-0.3,0.7-0.4c0.3-0.1,0.6,0,0.9,0.2
      c0.3,0,0.5,0,0.8,0.1c0,0,0.1,0,0.1,0.1c0.1,0,0.1,0.1,0.2,0.1l2.2-1.4c-1.7-1.8-4.1-2.8-5.9-2.8C9.1,5,4.5,7.3,4,12.2
      c-0.1,1.2-0.4,2.2-0.9,3.1c-0.4,0.7-0.9,1.3-1.5,1.8L0,18.2c2.4,1.8,4.7,0.6,5.8,0.1c1.2-0.6,3.5-2.9,4.5-3.3
      c0.5-0.2,1-0.4,1.6-0.4c0.5,0,1,0.1,1.6,0.4c1,0.4,3.3,2.8,4.5,3.3c1.1,0.5,3.6,1.7,6-0.2C23.6,17.9,22.8,17.4,22.3,17.1z"/>
  </symbol>
  <symbol id="print" viewBox="0 0 24 24">
		<path d="M20.5,21.9H3.9v-8.6h16.6V21.9z M4.9,20.8h14.5v-6.5H4.9V20.8z"/>
		<path d="M20.5,10.7H3.9V2.1h13.3l3.3,4V10.7z M4.9,9.7h14.5V6.5l-2.7-3.4H4.9V9.7z"/>
		<path d="M20.7,10H3.3c-1.6,0-2.9,1.3-2.9,2.9v3.3c0,1.6,1.3,2.9,2.9,2.9h1.1v-5.3H20v5.3h0.7c1.6,0,2.9-1.3,2.9-2.9v-3.3 C23.6,11.3,22.3,10,20.7,10z"/>
		<path d="M20.7,19.5h-1.1v-5.3H4.9v5.3H3.3C1.5,19.5,0,18,0,16.2v-3.3C0,11,1.5,9.6,3.3,9.6h17.4 c1.8,0,3.3,1.5,3.3,3.3v3.3C24,18,22.5,19.5,20.7,19.5z M20.4,18.6h0.3c1.4,0,2.5-1.1,2.5-2.5v-3.3c0-1.4-1.1-2.5-2.5-2.5H3.3 c-1.4,0-2.5,1.1-2.5,2.5v3.3c0,1.4,1.1,2.5,2.5,2.5H4v-5.3h16.4V18.6z"/>
		<polygon points="17,2.6 17,6.5 20,6.5 		"/>
		<path d="M20,7h-3c-0.3,0-0.5-0.2-0.5-0.5V2.6c0-0.2,0.1-0.4,0.3-0.5c0.2-0.1,0.4,0,0.6,0.2l3,3.9 c0.1,0.2,0.1,0.4,0.1,0.5C20.4,6.9,20.2,7,20,7z M17.5,6h1.4l-1.4-1.8V6z"/>
		<rect x="6.5" y="15.7" width="11" height="1"/>
		<rect x="6.5" y="18.2" width="11" height="1"/>  </symbol>
  <symbol id="share" viewBox="0 0 24 24">
    <polygon points="16.3,21.6 4,12.9 21,2.2 21.5,3 5.7,12.9 16.9,20.8 	"/>
    <path d="M21.8,5.1c-1.9,0.5-3.6-1.2-3.1-3.1c0.2-0.9,1-1.6,1.8-1.8c1.9-0.5,3.6,1.2,3.1,3.1 C23.5,4.1,22.7,4.8,21.8,5.1z"/>
    <path d="M6.1,17.4c-3.5,0.9-6.7-2.2-5.7-5.7c0.4-1.6,1.7-2.8,3.2-3.2c3.5-0.9,6.7,2.2,5.7,5.7 C8.9,15.7,7.7,17,6.1,17.4z"/>
    <path d="M16.6,24c-1.6,0-2.8-1.3-2.8-2.8c0-1.6,1.3-2.8,2.8-2.8c1.6,0,2.8,1.3,2.8,2.8C19.5,22.7,18.2,24,16.6,24z"/>
  </symbol>
  <symbol id="zoom-in" viewBox="0 0 24 24">
    <path d="M16.1,15.1l-0.4-0.4c1.4-1.6,2.2-3.7,2.2-5.8c0-4.9-4-8.9-8.9-8.9C4,0,0,4,0,8.9c0,4.9,4,8.9,8.9,8.9c2.2,0,4.2-0.8,5.8-2.2 l0.4,0.4v1.1L22,24l2-2l-6.8-6.9H16.1z M8.9,15.1c-3.4,0-6.2-2.8-6.2-6.2c0-3.4,2.8-6.2,6.2-6.2c3.4,0,6.2,2.8,6.2,6.2 C15.1,12.3,12.3,15.1,8.9,15.1z"/>
    <polygon points="9.6,5.5 8.2,5.5 8.2,8.2 5.5,8.2 5.5,9.6 8.2,9.6 8.2,12.3 9.6,12.3 9.6,9.6 12.3,9.6 12.3,8.2 9.6,8.2 "/>
  </symbol>
  <symbol id="zoom-out" viewBox="0 0 24 24">
    <path d="M16.1,15.1l-0.4-0.4c1.4-1.6,2.2-3.7,2.2-5.8c0-4.9-4-8.9-8.9-8.9C4,0,0,4,0,8.9c0,4.9,4,8.9,8.9,8.9c2.2,0,4.2-0.8,5.8-2.2 l0.4,0.4v1.1L22,24l2-2l-6.8-6.9H16.1z M8.9,15.1c-3.4,0-6.2-2.8-6.2-6.2c0-3.4,2.8-6.2,6.2-6.2c3.4,0,6.2,2.8,6.2,6.2 C15.1,12.3,12.3,15.1,8.9,15.1z"/>
    <polyline points="5.5,9.6 12.3,9.6 12.3,8.2 5.5,8.2 "/>
  </symbol>
</svg>