<svg viewBox="0 0 490 41" xmlns="http://www.w3.org/2000/svg">
  <style type="text/css">
    path{fill:#1D1D1B;}
    .color{fill:#B0C909;}
  </style>
	<path class="color" d="M8,32.3L0,8.9h6.7l4.9,15.9h0.1l4.9-15.9H23l-7.9,23.4H8z"/>
	<path d="M44.3,32.3h-1.7v-5h-0.1c-0.3,0.9-0.7,1.6-1.3,2.3c-0.6,0.7-1.2,1.3-1.9,1.7c-0.7,0.5-1.5,0.8-2.4,1.1
		c-0.9,0.2-1.8,0.4-2.7,0.4c-1.4,0-2.5-0.2-3.5-0.5C29.8,32,29,31.5,28.4,31c-0.6-0.5-1.1-1.2-1.4-1.8c-0.3-0.7-0.6-1.4-0.7-2.1
		c-0.2-0.7-0.2-1.4-0.3-2c0-0.6,0-1.2,0-1.7V9h1.7v14.7c0,0.6,0,1.3,0.1,2.2c0.1,0.9,0.4,1.7,0.8,2.5c0.4,0.8,1.1,1.5,2,2.1
		c0.9,0.6,2.1,0.9,3.7,0.9c1.3,0,2.5-0.2,3.5-0.7c1-0.5,1.9-1.2,2.6-2c0.7-0.9,1.3-1.9,1.6-3.1c0.4-1.2,0.6-2.5,0.6-3.9V9h1.7V32.3z
		"/>
	<path d="M67.4,27.3L67.4,27.3c-1.1,1.8-2.3,3.2-3.7,4.1c-1.4,0.9-3.2,1.4-5.3,1.4c-1.7,0-3.3-0.3-4.5-1
		c-1.3-0.7-2.3-1.6-3.1-2.7c-0.8-1.1-1.4-2.4-1.8-3.9c-0.4-1.5-0.6-3-0.6-4.6c0-1.7,0.2-3.3,0.6-4.8c0.4-1.5,1.1-2.8,1.9-3.9
		c0.9-1.1,1.9-1.9,3.2-2.6c1.3-0.6,2.8-0.9,4.6-0.9c0.9,0,1.9,0.1,2.8,0.4c0.9,0.3,1.7,0.6,2.5,1.1c0.8,0.5,1.4,1.1,2,1.8
		c0.6,0.7,1,1.5,1.3,2.4h0.1V0h1.7v32.3h-1.7V27.3z M58.7,31.3c1.5,0,2.7-0.3,3.8-0.9c1.1-0.6,2-1.4,2.7-2.4c0.7-1,1.2-2.1,1.6-3.4
		c0.3-1.3,0.5-2.6,0.5-3.9c0-1.4-0.2-2.7-0.5-4s-0.9-2.4-1.6-3.4c-0.7-1-1.6-1.8-2.7-2.4c-1.1-0.6-2.4-0.9-3.9-0.9
		c-1.5,0-2.8,0.3-3.9,0.9c-1.1,0.6-2,1.4-2.7,2.4c-0.7,1-1.2,2.1-1.5,3.4c-0.3,1.3-0.5,2.6-0.5,4c0,1.4,0.2,2.7,0.5,4
		c0.3,1.3,0.9,2.4,1.6,3.4c0.7,1,1.6,1.8,2.7,2.4C55.9,31,57.2,31.3,58.7,31.3z"/>
	<path d="M93,32.3h-1.7v-5h-0.1c-0.3,0.9-0.7,1.6-1.3,2.3c-0.6,0.7-1.2,1.3-1.9,1.7c-0.7,0.5-1.5,0.8-2.4,1.1
		c-0.9,0.2-1.8,0.4-2.7,0.4c-1.4,0-2.5-0.2-3.5-0.5c-0.9-0.3-1.7-0.8-2.3-1.3c-0.6-0.5-1.1-1.2-1.4-1.8c-0.3-0.7-0.6-1.4-0.7-2.1
		c-0.2-0.7-0.2-1.4-0.3-2s0-1.2,0-1.7V9h1.7v14.7c0,0.6,0,1.3,0.1,2.2c0.1,0.9,0.4,1.7,0.8,2.5c0.4,0.8,1.1,1.5,2,2.1
		c0.9,0.6,2.1,0.9,3.7,0.9c1.3,0,2.5-0.2,3.5-0.7c1-0.5,1.9-1.2,2.6-2s1.3-1.9,1.6-3.1c0.4-1.2,0.6-2.5,0.6-3.9V9H93V32.3z"/>
	<path class="color" d="M109.3,13.1c-1,0-1.9,0.2-2.6,0.7c-0.7,0.5-1.3,1.1-1.7,1.8c-0.4,0.7-0.7,1.6-0.9,2.4
		c-0.2,0.9-0.3,1.8-0.3,2.6c0,0.8,0.1,1.7,0.3,2.6c0.2,0.9,0.5,1.7,0.9,2.4c0.4,0.7,1,1.3,1.6,1.7c0.7,0.5,1.5,0.7,2.5,0.7
		c1.5,0,2.7-0.4,3.5-1.3c0.8-0.9,1.3-2,1.6-3.5h6.2c-0.4,3.1-1.6,5.5-3.6,7.1c-2,1.6-4.5,2.4-7.6,2.4c-1.7,0-3.4-0.3-4.8-0.9
		c-1.5-0.6-2.7-1.4-3.7-2.5c-1-1.1-1.8-2.3-2.4-3.8c-0.6-1.5-0.9-3.1-0.9-4.8c0-1.8,0.3-3.5,0.8-5c0.5-1.6,1.3-2.9,2.3-4
		c1-1.1,2.3-2,3.7-2.6c1.5-0.6,3.2-0.9,5.1-0.9c1.4,0,2.7,0.2,4,0.5c1.3,0.4,2.4,0.9,3.4,1.6c1,0.7,1.8,1.7,2.5,2.8
		c0.6,1.1,1,2.4,1.1,3.9H114C113.6,14.4,112,13.1,109.3,13.1z"/>
	<path d="M124.6,4.7V0h1.7v4.7H124.6z M124.6,32.3V9h1.7v23.2H124.6z"/>
	<path d="M132.5,20.9v0.3c0,1.4,0.2,2.7,0.5,3.9c0.4,1.2,0.9,2.3,1.6,3.3c0.7,0.9,1.6,1.7,2.7,2.2
		c1.1,0.5,2.3,0.8,3.7,0.8c2.3,0,4.2-0.6,5.5-1.8s2.3-2.9,2.8-5.1h1.7c-0.5,2.7-1.6,4.8-3.3,6.2c-1.7,1.4-4,2.2-6.8,2.2
		c-1.7,0-3.2-0.3-4.5-0.9c-1.3-0.6-2.3-1.5-3.2-2.5c-0.9-1.1-1.5-2.3-1.9-3.8c-0.4-1.5-0.6-3-0.6-4.7c0-1.6,0.2-3.2,0.7-4.7
		c0.4-1.5,1.1-2.8,2-3.9c0.9-1.1,2-2,3.3-2.7c1.3-0.7,2.9-1,4.6-1c1.6,0,3.1,0.3,4.3,0.9c1.2,0.6,2.3,1.4,3.1,2.5
		c0.8,1,1.5,2.2,1.9,3.6c0.4,1.4,0.7,2.8,0.7,4.4c0,0.2,0,0.3,0,0.5c0,0.2,0,0.4,0,0.5H132.5z M149.6,19.4c-0.1-1.3-0.3-2.5-0.6-3.6
		c-0.4-1.1-0.9-2.1-1.6-3s-1.6-1.5-2.6-2.1c-1-0.5-2.2-0.8-3.5-0.8c-1.4,0-2.6,0.3-3.7,0.8c-1.1,0.5-1.9,1.2-2.7,2.1
		c-0.7,0.9-1.3,1.9-1.7,3c-0.4,1.1-0.6,2.3-0.7,3.5H149.6z"/>
	<path d="M157.6,0v32.3h-1.7V0H157.6z"/>
	<path d="M165.7,27.6h2.3v4.7h-2.3V27.6z"/>
	<path d="M177.9,0v32.3h-1.7V0H177.9z"/>
	<path d="M182.4,20.6c0-1.7,0.2-3.2,0.7-4.7c0.5-1.5,1.2-2.7,2.1-3.9c0.9-1.1,2-2,3.3-2.6c1.3-0.6,2.8-1,4.6-1
		c1.7,0,3.2,0.3,4.6,1c1.3,0.6,2.4,1.5,3.3,2.6c0.9,1.1,1.6,2.4,2.1,3.9c0.5,1.5,0.7,3,0.7,4.7c0,1.7-0.2,3.2-0.7,4.7
		c-0.5,1.5-1.2,2.8-2.1,3.9c-0.9,1.1-2,2-3.3,2.6c-1.3,0.6-2.8,1-4.6,1c-1.7,0-3.2-0.3-4.6-1c-1.3-0.6-2.4-1.5-3.3-2.6
		c-0.9-1.1-1.6-2.4-2.1-3.9C182.6,23.9,182.4,22.3,182.4,20.6z M184.1,20.6c0,1.4,0.2,2.7,0.6,4c0.4,1.3,1,2.4,1.7,3.4
		c0.8,1,1.7,1.8,2.8,2.4c1.1,0.6,2.4,0.9,3.8,0.9c1.4,0,2.7-0.3,3.8-0.9c1.1-0.6,2-1.4,2.8-2.4c0.8-1,1.3-2.1,1.7-3.4
		c0.4-1.3,0.6-2.6,0.6-4s-0.2-2.7-0.6-4c-0.4-1.3-1-2.4-1.7-3.4c-0.8-1-1.7-1.8-2.8-2.4c-1.1-0.6-2.4-0.9-3.8-0.9
		c-1.4,0-2.7,0.3-3.8,0.9c-1.1,0.6-2,1.4-2.8,2.4c-0.8,1-1.3,2.1-1.7,3.4C184.3,17.9,184.1,19.3,184.1,20.6z"/>
	<path d="M208.2,4.7V0h1.7v4.7H208.2z M208.2,32.3V9h1.7v23.2H208.2z"/>
	<path d="M217.2,14.2h0.1c0.2-0.8,0.6-1.5,1.2-2.1c0.6-0.7,1.2-1.2,2-1.7c0.8-0.5,1.7-0.9,2.7-1.1c1-0.3,2-0.4,3.1-0.3
		v1.7c-0.9-0.1-1.9,0-3.1,0.3c-1.2,0.3-2.3,1-3.3,2c-0.4,0.5-0.8,0.9-1.1,1.3c-0.3,0.4-0.6,0.9-0.8,1.4c-0.2,0.5-0.4,1.1-0.5,1.7
		c-0.1,0.6-0.2,1.4-0.2,2.3v12.7h-1.7V9h1.7V14.2z"/>
	<path d="M228.2,20.9v0.3c0,1.4,0.2,2.7,0.5,3.9c0.4,1.2,0.9,2.3,1.6,3.3c0.7,0.9,1.6,1.7,2.7,2.2
		c1.1,0.5,2.3,0.8,3.7,0.8c2.3,0,4.2-0.6,5.5-1.8s2.3-2.9,2.8-5.1h1.7c-0.5,2.7-1.6,4.8-3.3,6.2c-1.7,1.4-4,2.2-6.8,2.2
		c-1.7,0-3.2-0.3-4.5-0.9c-1.3-0.6-2.3-1.5-3.2-2.5c-0.9-1.1-1.5-2.3-1.9-3.8c-0.4-1.5-0.6-3-0.6-4.7c0-1.6,0.2-3.2,0.7-4.7
		c0.4-1.5,1.1-2.8,2-3.9c0.9-1.1,2-2,3.3-2.7c1.3-0.7,2.9-1,4.6-1c1.6,0,3.1,0.3,4.3,0.9c1.2,0.6,2.3,1.4,3.1,2.5
		c0.8,1,1.5,2.2,1.9,3.6c0.4,1.4,0.7,2.8,0.7,4.4c0,0.2,0,0.3,0,0.5c0,0.2,0,0.4,0,0.5H228.2z M245.3,19.4c-0.1-1.3-0.3-2.5-0.6-3.6
		c-0.4-1.1-0.9-2.1-1.6-3s-1.6-1.5-2.6-2.1c-1-0.5-2.2-0.8-3.5-0.8c-1.4,0-2.6,0.3-3.7,0.8c-1.1,0.5-1.9,1.2-2.7,2.1
		c-0.7,0.9-1.3,1.9-1.7,3c-0.4,1.1-0.6,2.3-0.7,3.5H245.3z"/>
	<path d="M251.7,19.1h9.7v1.7h-9.7V19.1z"/>
	<path d="M282.5,27.7L282.5,27.7c-0.4,0.7-0.8,1.3-1.3,2c-0.5,0.6-1.1,1.2-1.9,1.6c-0.7,0.5-1.6,0.9-2.5,1.1
		c-0.9,0.3-2,0.4-3.1,0.4c-2.5,0-4.4-0.5-5.7-1.6c-1.4-1.1-2-2.7-2-4.9c0-1.4,0.3-2.5,0.8-3.3c0.5-0.9,1.2-1.5,2.1-2
		c0.8-0.5,1.7-0.9,2.8-1.1c1-0.2,2-0.4,2.9-0.5l2.7-0.2c1.2-0.1,2.2-0.2,2.9-0.4c0.7-0.2,1.2-0.5,1.6-0.8c0.4-0.3,0.6-0.8,0.7-1.3
		c0.1-0.5,0.1-1.2,0.1-2c0-0.6-0.1-1.2-0.4-1.8c-0.2-0.5-0.6-1-1.1-1.4c-0.5-0.4-1.2-0.8-2-1c-0.8-0.2-1.8-0.4-3-0.4
		c-2.1,0-3.8,0.5-5,1.5c-1.3,1-2,2.6-2.1,4.7h-1.7c0.1-2.6,0.9-4.5,2.5-5.8c1.5-1.3,3.7-1.9,6.5-1.9s4.8,0.5,6.1,1.6
		c1.3,1.1,1.9,2.5,1.9,4.3V28c0,0.3,0,0.7,0,1c0,0.3,0.1,0.6,0.2,0.9c0.1,0.3,0.2,0.5,0.5,0.7c0.2,0.2,0.5,0.2,0.9,0.2
		c0.3,0,0.7,0,1.3-0.1v1.4c-0.5,0.1-0.9,0.2-1.4,0.2c-0.7,0-1.2-0.1-1.6-0.3c-0.4-0.2-0.7-0.4-0.9-0.7c-0.2-0.3-0.4-0.7-0.4-1.1
		c-0.1-0.4-0.1-0.9-0.1-1.3V27.7z M282.5,19.1c-0.4,0.5-1.1,0.9-1.9,1c-0.9,0.2-1.8,0.3-2.9,0.4l-2.9,0.3c-0.8,0.1-1.7,0.2-2.5,0.4
		c-0.8,0.2-1.6,0.4-2.3,0.8c-0.7,0.4-1.2,0.9-1.6,1.6c-0.4,0.7-0.6,1.6-0.6,2.6c0,1.7,0.5,3,1.6,3.8c1.1,0.8,2.6,1.2,4.5,1.2
		c2,0,3.5-0.4,4.7-1.1c1.1-0.7,2-1.5,2.6-2.4c0.6-0.9,1-1.8,1.2-2.7c0.2-0.9,0.2-1.4,0.2-1.7V19.1z"/>
	<path d="M298.3,10.5h-5.1v16.2c0,0.9,0.1,1.7,0.3,2.2c0.2,0.5,0.5,1,1,1.2c0.4,0.3,1,0.5,1.6,0.5
		c0.6,0.1,1.3,0.1,2.1,0v1.5c-0.9,0.1-1.7,0.1-2.6,0c-0.8-0.1-1.6-0.3-2.2-0.7c-0.6-0.4-1.1-0.9-1.5-1.7c-0.4-0.8-0.5-1.8-0.5-3.1
		V10.5h-4.3V9h4.3V1.8h1.7V9h5.1V10.5z"/>
	<path d="M303.7,0v32.3H302V0H303.7z"/>
	<path d="M324.7,27.7L324.7,27.7c-0.4,0.7-0.8,1.3-1.3,2c-0.5,0.6-1.1,1.2-1.9,1.6c-0.7,0.5-1.6,0.9-2.5,1.1
		c-0.9,0.3-2,0.4-3.1,0.4c-2.5,0-4.4-0.5-5.7-1.6c-1.4-1.1-2-2.7-2-4.9c0-1.4,0.3-2.5,0.8-3.3c0.5-0.9,1.2-1.5,2.1-2
		c0.8-0.5,1.7-0.9,2.8-1.1c1-0.2,2-0.4,2.9-0.5l2.7-0.2c1.2-0.1,2.2-0.2,2.9-0.4c0.7-0.2,1.2-0.5,1.6-0.8c0.4-0.3,0.6-0.8,0.7-1.3
		c0.1-0.5,0.1-1.2,0.1-2c0-0.6-0.1-1.2-0.4-1.8c-0.2-0.5-0.6-1-1.1-1.4c-0.5-0.4-1.2-0.8-2-1c-0.8-0.2-1.8-0.4-3-0.4
		c-2.1,0-3.8,0.5-5,1.5c-1.3,1-2,2.6-2.1,4.7h-1.7c0.1-2.6,0.9-4.5,2.5-5.8c1.5-1.3,3.7-1.9,6.5-1.9s4.8,0.5,6.1,1.6
		c1.3,1.1,1.9,2.5,1.9,4.3V28c0,0.3,0,0.7,0,1c0,0.3,0.1,0.6,0.2,0.9c0.1,0.3,0.2,0.5,0.5,0.7c0.2,0.2,0.5,0.2,0.9,0.2
		c0.3,0,0.7,0,1.3-0.1v1.4c-0.5,0.1-0.9,0.2-1.4,0.2c-0.7,0-1.2-0.1-1.6-0.3c-0.4-0.2-0.7-0.4-0.9-0.7c-0.2-0.3-0.4-0.7-0.4-1.1
		c-0.1-0.4-0.1-0.9-0.1-1.3V27.7z M324.7,19.1c-0.4,0.5-1.1,0.9-1.9,1c-0.9,0.2-1.8,0.3-2.9,0.4l-2.9,0.3c-0.8,0.1-1.7,0.2-2.5,0.4
		c-0.8,0.2-1.6,0.4-2.3,0.8c-0.7,0.4-1.2,0.9-1.6,1.6c-0.4,0.7-0.6,1.6-0.6,2.6c0,1.7,0.5,3,1.6,3.8c1.1,0.8,2.6,1.2,4.5,1.2
		c2,0,3.5-0.4,4.7-1.1c1.1-0.7,2-1.5,2.6-2.4c0.6-0.9,1-1.8,1.2-2.7c0.2-0.9,0.2-1.4,0.2-1.7V19.1z"/>
	<path d="M332,9h1.7v5h0.1c0.3-0.9,0.7-1.6,1.3-2.3c0.6-0.7,1.2-1.3,1.9-1.7c0.7-0.5,1.5-0.8,2.4-1.1
		c0.9-0.2,1.8-0.4,2.7-0.4c1.4,0,2.5,0.2,3.5,0.5s1.7,0.8,2.3,1.3c0.6,0.5,1.1,1.2,1.4,1.8c0.3,0.7,0.6,1.4,0.7,2.1
		c0.2,0.7,0.2,1.4,0.3,2c0,0.6,0,1.2,0,1.7v14.4h-1.7V17.6c0-0.6,0-1.3-0.1-2.2c-0.1-0.9-0.4-1.7-0.8-2.5c-0.4-0.8-1.1-1.5-2-2.1
		c-0.9-0.6-2.1-0.9-3.7-0.9c-1.3,0-2.5,0.2-3.5,0.7c-1,0.5-1.9,1.2-2.6,2c-0.7,0.9-1.3,1.9-1.6,3.1c-0.4,1.2-0.6,2.5-0.6,3.9v12.6
		H332V9z"/>
	<path d="M364,10.5H359v16.2c0,0.9,0.1,1.7,0.3,2.2c0.2,0.5,0.5,1,1,1.2c0.4,0.3,1,0.5,1.6,0.5s1.3,0.1,2.1,0v1.5
		c-0.9,0.1-1.7,0.1-2.6,0c-0.8-0.1-1.6-0.3-2.2-0.7c-0.6-0.4-1.1-0.9-1.5-1.7c-0.4-0.8-0.5-1.8-0.5-3.1V10.5H353V9h4.3V1.8h1.7V9
		h5.1V10.5z"/>
	<path d="M367.7,4.7V0h1.7v4.7H367.7z M367.7,32.3V9h1.7v23.2H367.7z"/>
	<path d="M392.9,27.1h-0.1c-0.3,0.9-0.7,1.7-1.3,2.4c-0.6,0.7-1.2,1.3-2,1.8c-0.8,0.5-1.6,0.9-2.5,1.1
		c-0.9,0.3-1.8,0.4-2.8,0.4c-1.7,0-3.3-0.3-4.6-0.9c-1.3-0.6-2.4-1.5-3.2-2.6c-0.9-1.1-1.5-2.4-1.9-3.9c-0.4-1.5-0.6-3.1-0.6-4.8
		c0-1.6,0.2-3.1,0.6-4.6c0.4-1.5,1-2.7,1.8-3.9c0.8-1.1,1.9-2,3.1-2.7c1.3-0.7,2.8-1,4.5-1c2.1,0,3.8,0.5,5.3,1.4
		c1.4,0.9,2.6,2.3,3.6,4.1h0.1V9h1.7v31.5h-1.7V27.1z M384.2,31.3c1.5,0,2.8-0.3,3.9-0.9c1.1-0.6,2-1.4,2.7-2.4
		c0.7-1,1.2-2.2,1.6-3.4c0.3-1.3,0.5-2.6,0.5-4c0-1.3-0.2-2.6-0.5-3.9c-0.3-1.3-0.9-2.4-1.6-3.4c-0.7-1-1.6-1.8-2.7-2.4
		c-1.1-0.6-2.3-0.9-3.8-0.9c-1.5,0-2.8,0.3-3.9,0.9c-1.1,0.6-2,1.4-2.7,2.4c-0.7,1-1.2,2.1-1.6,3.4c-0.3,1.3-0.5,2.6-0.5,4
		c0,1.4,0.2,2.8,0.5,4c0.3,1.3,0.8,2.4,1.5,3.4c0.7,1,1.6,1.8,2.7,2.4C381.4,31,382.7,31.3,384.2,31.3z"/>
	<path d="M418.6,32.3h-1.7v-5h-0.1c-0.3,0.9-0.7,1.6-1.3,2.3c-0.6,0.7-1.2,1.3-1.9,1.7c-0.7,0.5-1.5,0.8-2.4,1.1
		c-0.9,0.2-1.8,0.4-2.7,0.4c-1.4,0-2.5-0.2-3.5-0.5c-0.9-0.3-1.7-0.8-2.3-1.3c-0.6-0.5-1.1-1.2-1.4-1.8c-0.3-0.7-0.6-1.4-0.7-2.1
		c-0.2-0.7-0.2-1.4-0.3-2c0-0.6,0-1.2,0-1.7V9h1.7v14.7c0,0.6,0,1.3,0.1,2.2c0.1,0.9,0.4,1.7,0.8,2.5c0.4,0.8,1.1,1.5,2,2.1
		c0.9,0.6,2.1,0.9,3.7,0.9c1.3,0,2.5-0.2,3.5-0.7c1-0.5,1.9-1.2,2.6-2c0.7-0.9,1.3-1.9,1.6-3.1c0.4-1.2,0.6-2.5,0.6-3.9V9h1.7V32.3z
		"/>
	<path d="M424.3,20.9v0.3c0,1.4,0.2,2.7,0.5,3.9c0.4,1.2,0.9,2.3,1.6,3.3c0.7,0.9,1.6,1.7,2.7,2.2
		c1.1,0.5,2.3,0.8,3.7,0.8c2.3,0,4.2-0.6,5.5-1.8c1.4-1.2,2.3-2.9,2.8-5.1h1.7c-0.5,2.7-1.6,4.8-3.3,6.2c-1.7,1.4-4,2.2-6.8,2.2
		c-1.7,0-3.2-0.3-4.5-0.9c-1.3-0.6-2.3-1.5-3.2-2.5c-0.9-1.1-1.5-2.3-1.9-3.8c-0.4-1.5-0.6-3-0.6-4.7c0-1.6,0.2-3.2,0.7-4.7
		c0.4-1.5,1.1-2.8,2-3.9c0.9-1.1,2-2,3.3-2.7c1.3-0.7,2.9-1,4.6-1c1.6,0,3.1,0.3,4.3,0.9c1.3,0.6,2.3,1.4,3.1,2.5
		c0.8,1,1.5,2.2,1.9,3.6c0.4,1.4,0.7,2.8,0.7,4.4c0,0.2,0,0.3,0,0.5c0,0.2,0,0.4,0,0.5H424.3z M441.4,19.4c-0.1-1.3-0.3-2.5-0.6-3.6
		c-0.4-1.1-0.9-2.1-1.6-3c-0.7-0.9-1.6-1.5-2.6-2.1s-2.2-0.8-3.5-0.8c-1.4,0-2.6,0.3-3.7,0.8c-1.1,0.5-1.9,1.2-2.7,2.1
		s-1.3,1.9-1.7,3c-0.4,1.1-0.6,2.3-0.7,3.5H441.4z"/>
	<path d="M449.8,27.6h2.3v4.7h-2.3V27.6z"/>
	<path class="color" d="M457.4,13.2V8.9h3.8V7.1c0-2.1,0.6-3.8,1.9-5.1c1.3-1.3,3.3-2,5.9-2c0.6,0,1.1,0,1.7,0.1
		c0.6,0,1.1,0.1,1.7,0.1V5c-0.8-0.1-1.5-0.1-2.3-0.1c-0.9,0-1.5,0.2-1.9,0.6c-0.4,0.4-0.6,1.1-0.6,2.1v1.4h4.4v4.3h-4.4v19.1h-6.4
		V13.2H457.4z"/>
	<path class="color" d="M481.1,8.9v4.3h0.1c0.3-0.7,0.7-1.4,1.2-2c0.5-0.6,1.1-1.1,1.8-1.6c0.7-0.4,1.4-0.8,2.1-1
		c0.8-0.2,1.5-0.4,2.3-0.4c0.4,0,0.9,0.1,1.4,0.2v6c-0.3-0.1-0.7-0.1-1.1-0.2c-0.4,0-0.8-0.1-1.2-0.1c-1.2,0-2.2,0.2-3,0.6
		c-0.8,0.4-1.5,0.9-2,1.6c-0.5,0.7-0.9,1.5-1.1,2.4c-0.2,0.9-0.3,1.9-0.3,2.9v10.5H475V8.9H481.1z"/>
</svg>
