<svg viewBox="0 0 103 53" xmlns="http://www.w3.org/2000/svg">
	<path fill="#004563" d="M0,8.1l14.7,44.2c18.1-11,30.2-16.7,88.3-12.7V11.4C64.5-3.6,17.8-2.9,0,8.1z"/>
	<g fill="#fff">
		<path d="M29.1,8.8c-1.3,0-2.4,0.5-3.4,1.4c-0.9,0.9-1.4,2.1-1.4,3.4c0,1.3,0.5,2.4,1.4,3.4c0.9,0.9,2.1,1.4,3.4,1.4
			c1.3,0,2.4-0.5,3.4-1.4c0.9-0.9,1.4-2.1,1.4-3.4c0-1.3-0.5-2.4-1.4-3.4C31.6,9.2,30.4,8.8,29.1,8.8 M30.9,15.4
			c-0.5,0.5-1.1,0.8-1.8,0.8c-0.7,0-1.3-0.2-1.8-0.8c-0.5-0.5-0.8-1.1-0.8-1.8c0-0.7,0.2-1.3,0.8-1.8c0.5-0.5,1.1-0.8,1.8-0.8
			c0.7,0,1.3,0.3,1.8,0.8c0.5,0.5,0.8,1.1,0.8,1.8C31.7,14.3,31.5,14.9,30.9,15.4"/>
		<rect x="35.3" y="8.9" width="2.2" height="9.3"/>
		<rect x="35.3" y="5.8" width="2.2" height="2.2"/>
		<path d="M40.4,10c-0.8,0.8-1.3,1.8-1.3,2.9v5.3h2.2v-5.3c0-0.5,0.2-1,0.6-1.3c0.4-0.4,0.9-0.5,1.4-0.5h0.3V8.8
			l-0.3,0C42.3,8.8,41.3,9.2,40.4,10"/>
		<polygon points="30.2,21.6 28,21.6 28,24.6 26.6,24.6 26.6,26.8 28,26.8 28,33.9 30.2,33.9 30.2,26.8 31.7,26.8 
			31.7,24.6 30.2,24.6 			"/>
		<rect x="33.2" y="21.6" width="2.2" height="12.3"/>
		<path d="M41.5,24.5c-1.3,0-2.4,0.5-3.4,1.4c-0.9,0.9-1.4,2.1-1.4,3.4c0,1.3,0.5,2.4,1.4,3.4c0.9,0.9,2,1.4,3.3,1.4
			c1,0,1.9-0.3,2.7-0.9v0.8h2.2v-4.6c0-1.3-0.5-2.4-1.4-3.4C44,25,42.8,24.5,41.5,24.5 M43.4,31.1c-0.5,0.5-1.1,0.8-1.8,0.8
			c-0.7,0-1.3-0.2-1.8-0.8c-0.5-0.5-0.8-1.1-0.8-1.8c0-0.7,0.2-1.3,0.8-1.8c0.5-0.5,1.1-0.8,1.8-0.8c0.7,0,1.3,0.3,1.8,0.8
			c0.5,0.5,0.8,1.1,0.8,1.8C44.1,30,43.9,30.6,43.4,31.1"/>
		<path d="M51.7,24.5c-1.1,0-2,0.4-2.9,1.2c-0.8,0.8-1.2,1.8-1.2,2.9v5.3h2.2v-5.3c0-0.5,0.2-0.9,0.6-1.3
			c0.4-0.4,0.8-0.6,1.3-0.6c0.5,0,0.9,0.2,1.3,0.6c0.4,0.4,0.6,0.8,0.6,1.3v5.3h2.2v-5.3c0-1.1-0.4-2-1.2-2.9
			C53.8,24.9,52.8,24.5,51.7,24.5"/>
		<polygon points="60.1,21.6 57.9,21.6 57.9,24.6 56.5,24.6 56.5,26.8 57.9,26.8 57.9,33.9 60.1,33.9 60.1,26.8 
			61.5,26.8 61.5,24.6 60.1,24.6 			"/>
		<rect x="62.5" y="24.6" width="2.2" height="9.3"/>
		<rect x="62.5" y="21.6" width="2.2" height="2.2"/>
		<path d="M70.8,24.5c-1.3,0-2.4,0.5-3.4,1.4C66.5,26.8,66,28,66,29.3c0,1.3,0.5,2.4,1.3,3.4c0.9,0.9,2,1.4,3.3,1.4
			c1,0,1.9-0.3,2.7-0.9v5.2h2.2v-9.1c0-1.3-0.5-2.4-1.4-3.4C73.3,25,72.1,24.5,70.8,24.5 M72.6,31.1c-0.5,0.5-1.1,0.8-1.8,0.8
			c-0.7,0-1.3-0.2-1.8-0.8c-0.5-0.5-0.8-1.1-0.8-1.8c0-0.7,0.2-1.3,0.8-1.8c0.5-0.5,1.1-0.8,1.8-0.8c0.7,0,1.3,0.3,1.8,0.8
			c0.5,0.5,0.8,1.1,0.8,1.8C73.4,30,73.1,30.6,72.6,31.1"/>
		<path d="M82.9,30c0,0.5-0.2,0.9-0.6,1.3c-0.4,0.4-0.8,0.6-1.3,0.6c-0.5,0-0.9-0.2-1.3-0.6c-0.4-0.4-0.6-0.8-0.6-1.3
			v-5.4h-2.2V30c0,1.1,0.4,2,1.2,2.8c0.8,0.8,1.8,1.2,2.9,1.2c1.1,0,2-0.4,2.8-1.2c0.8-0.8,1.2-1.8,1.2-2.8v-5.4h-2.2V30z"/>
		<path d="M50.5,15.4c-0.5,0.5-1.1,0.8-1.8,0.8c-0.5,0-1-0.1-1.4-0.4l5.9-3.8l-0.1-0.2c-0.4-0.9-1-1.6-1.8-2.2
			c-0.8-0.5-1.7-0.8-2.7-0.8c-1.3,0-2.5,0.5-3.4,1.4c-0.9,0.9-1.4,2.1-1.4,3.4c0,1.3,0.5,2.5,1.4,3.4c0.9,0.9,2.1,1.4,3.4,1.4
			c1.3,0,2.5-0.5,3.4-1.4c0.6-0.7,1.1-1.4,1.2-2.3H51C50.9,14.9,50.7,15.1,50.5,15.4 M46.1,13.6c0-0.7,0.2-1.3,0.8-1.8
			c0.5-0.5,1.1-0.8,1.8-0.8c0.5,0,0.9,0.1,1.4,0.4l-3.9,2.5C46.1,13.8,46.1,13.7,46.1,13.6"/>
		<path d="M93.2,30.3c-0.1,0.3-0.3,0.5-0.5,0.8c-0.5,0.5-1.1,0.8-1.8,0.8c-0.5,0-1-0.1-1.4-0.4l5.9-3.8l-0.1-0.2
			c-0.4-0.9-1-1.6-1.8-2.2c-0.8-0.5-1.7-0.8-2.7-0.8c-1.3,0-2.5,0.5-3.4,1.4C86.5,26.8,86,28,86,29.3c0,1.3,0.5,2.5,1.4,3.4
			c0.9,0.9,2.1,1.4,3.4,1.4c1.3,0,2.5-0.5,3.4-1.4c0.6-0.7,1.1-1.4,1.2-2.3H93.2z M88.3,29.3c0-0.7,0.2-1.3,0.8-1.8
			c0.5-0.5,1.1-0.8,1.8-0.8c0.5,0,0.9,0.1,1.4,0.4l-3.9,2.5C88.3,29.5,88.3,29.4,88.3,29.3"/>
		<polygon points="19.1,5.9 16.8,5.9 16.8,18.2 24.2,18.2 24.2,15.9 19.1,15.9 			"/>
		<path d="M24.9,33.9h2.5L23,21.6h-2.6l-4.4,12.3h2.4l0.8-2.1h4.9L24.9,33.9z M20,29.8l1.7-4.7l1.7,4.7H20z"/>
	</g>
	<path fill="#aecA10" d="M21.9,48.1H103v-8.6C52.8,36.1,37,40,21.9,48.1z"/>
</svg>
